<svg width="500" height="500" version="1.1" xmlns="http://www.w3.org/2000/svg" desc="Created with imagetracer.js version 1.2.6" ><path fill="rgb(0,0,0)" stroke="rgb(0,0,0)" stroke-width="1" opacity="0" d="M 0 0 L 500 0 L 500 500 L 0 500 L 0 0 Z M 273 155 Q 274 158 272 157 Q 269 158 271 160 L 269 161 Q 266 162 268 164 L 267 163 Q 264 164 266 166 L 264 166 L 262 169 Q 260 173 259 170 L 257 173 L 255 173 Q 256 175 253 174 L 254 168 L 252 166 L 252 164 L 247 165 L 246 164 L 243 167 L 242 166 L 240 169 Q 237 170 238 163 L 232 160 L 230 163 L 227 164 L 223 169 L 220 171 L 220 173 Q 217 172 218 175 L 214 178 Q 209 177 208 180 Q 205 179 206 182 Q 205 184 204 182 L 200 183 L 200 185 L 199 184 L 196 189 L 196 191 Q 197 193 195 192 L 195 194 L 194 197 L 194 199 L 193 199 L 193 201 L 192 207 L 189 206 L 183 208 L 181 207 L 174 215 L 174 224 L 182 234 Q 184 233 183 236 L 188 237 L 194 245 Q 193 247 196 246 L 196 248 L 198 248 L 200 248 L 212 252 L 214 252 L 217 251 L 214 255 L 215 256 L 214 256 L 214 258 L 213 258 L 213 260 L 212 259 L 210 262 L 209 261 L 206 262 L 208 263 L 202 265 Q 197 263 197 258 L 194 256 L 189 257 L 188 260 Q 184 259 186 265 L 184 266 L 184 268 L 182 268 Q 181 271 184 270 L 184 273 Q 186 277 188 274 L 187 276 L 194 278 L 195 281 L 194 284 L 195 287 Q 197 285 199 288 L 204 287 L 203 286 L 205 286 L 206 283 L 212 284 L 211 287 L 212 291 L 214 291 L 213 293 Q 216 294 214 300 L 214 302 L 217 307 Q 216 309 219 308 L 219 310 L 222 312 L 219 313 L 216 312 L 214 312 L 211 313 L 209 313 L 206 315 L 206 317 L 203 318 L 204 320 Q 202 324 207 323 L 209 323 L 209 325 L 212 326 L 215 325 L 216 328 L 219 327 L 221 328 L 226 327 L 230 325 L 231 326 L 234 325 L 236 325 Q 239 326 238 324 L 240 324 L 247 323 L 249 322 L 248 327 L 248 329 L 263 332 L 267 334 L 272 333 Q 273 329 275 332 L 283 330 Q 284 326 286 329 L 286 328 L 288 328 L 292 326 Q 294 327 293 324 L 295 324 L 295 323 L 294 320 L 296 318 L 298 319 L 303 318 L 305 318 Q 309 320 308 317 L 310 317 L 313 315 L 315 316 L 318 314 L 320 314 L 324 312 L 323 311 L 325 310 L 327 310 Q 326 307 330 308 L 331 306 Q 332 303 334 305 L 336 304 L 335 303 L 337 302 L 342 297 L 341 296 L 345 293 L 347 289 L 347 287 L 349 286 L 348 285 L 349 282 L 351 282 L 351 281 L 351 279 Q 350 274 353 275 L 352 273 L 353 270 L 353 268 L 354 266 L 353 257 Q 356 256 355 259 Q 356 261 360 260 L 359 259 L 361 258 L 360 255 L 361 250 L 360 245 L 362 239 L 361 237 L 364 228 L 361 227 L 358 228 Q 356 231 355 229 L 349 232 Q 345 231 347 235 L 346 235 Q 344 238 343 236 L 342 238 L 337 240 L 337 242 L 334 244 Q 335 246 332 245 L 332 248 L 336 250 L 338 250 Q 337 253 340 252 Q 341 250 342 253 L 341 257 L 338 255 L 336 258 L 337 261 L 337 263 L 335 260 L 333 259 L 330 261 L 331 263 L 329 264 L 330 267 L 327 266 Q 328 262 323 264 L 323 266 L 321 271 L 322 274 Q 319 275 320 271 Q 317 269 319 267 Q 314 265 315 269 L 314 268 Q 309 271 310 276 Q 306 277 308 272 Q 310 270 308 269 L 304 270 Q 301 269 303 268 L 300 265 L 297 266 L 288 265 Q 289 262 291 264 L 291 259 L 290 259 L 289 257 L 287 258 L 283 257 L 281 257 L 279 258 L 279 257 L 278 255 L 280 255 L 283 253 Q 285 254 284 252 L 286 252 L 286 250 L 289 249 L 295 250 L 297 250 L 299 249 L 303 251 L 305 248 Q 307 249 306 246 L 311 243 Q 313 244 312 242 L 314 242 L 319 240 Q 322 241 321 238 L 321 236 L 319 234 L 319 233 L 318 231 L 316 228 L 316 226 Q 314 219 317 218 L 316 216 L 318 215 L 317 213 L 320 211 L 319 210 L 321 209 L 320 208 Q 321 205 323 207 L 323 205 L 325 205 Q 327 204 325 203 L 328 201 Q 330 202 329 200 L 331 200 Q 331 197 336 197 L 337 194 L 336 194 L 336 192 L 333 193 L 326 191 L 324 191 L 313 191 L 312 190 Q 306 189 305 192 L 300 192 L 298 194 L 293 194 L 291 196 Q 286 194 287 198 L 285 198 Q 286 201 282 199 L 280 203 L 278 202 L 278 204 L 277 203 L 276 206 L 273 199 L 269 198 Q 266 199 267 197 L 270 195 L 269 194 L 271 194 L 271 192 L 272 189 L 270 188 L 271 184 L 271 181 Q 275 182 274 180 L 276 180 L 276 178 L 278 178 L 278 175 L 283 170 L 282 169 Q 281 166 284 167 L 283 166 L 284 162 Q 281 156 273 155 Z " /><path fill="rgb(0,0,0)" stroke="rgb(0,0,0)" stroke-width="1" opacity="0" d="M 268.5 184 L 269 186 L 266 185.5 L 268.5 184 Z " /><path fill="rgb(0,0,0)" stroke="rgb(0,0,0)" stroke-width="1" opacity="0" d="M 235.5 194 L 242 194 L 242 196.5 L 244 196.5 Q 246.1 206.6 241.5 210 L 242 208.5 Q 243.5 201 240.5 198 L 239 198.5 L 239.5 197 L 234.5 198 L 233 197.5 Q 231.9 200.8 234.5 200 L 234.5 202 L 236 202.5 L 233.5 206 Q 230.5 206.7 232 203 L 229.5 203 L 227.5 204 L 228 202.5 L 231 196 L 235.5 194 Z " /><path fill="rgb(0,0,0)" stroke="rgb(0,0,0)" stroke-width="1" opacity="0" d="M 227 205 Q 229.7 203.9 229 206.5 L 228 208.5 L 228.5 210 L 227 209.5 L 229 216.5 L 226 214.5 Q 225.1 207.7 227 205 Z " /><path fill="rgb(0,0,0)" stroke="rgb(0,0,0)" stroke-width="1" opacity="0" d="M 272 206 L 274 206.5 Q 270.8 207.8 272 213.5 Q 275.6 216.4 274 224.5 L 273.5 227 Q 270.5 226.1 272 230.5 Q 269.2 232.5 270 237 L 268 237 L 268 241 L 266.5 241 L 259 244 Q 260 247 257 246 L 259 241.5 L 258.5 240 Q 261.1 240.8 260 237.5 L 259.5 236 L 261 236.5 L 262.5 234 L 264.5 235 Q 262.7 232.7 267 230.5 L 266 227.5 L 273 223.5 L 272.5 221 L 271 221.5 L 272 220.5 L 269.5 216 Q 267.3 216.8 268 214.5 L 269.5 212 L 271 212.5 L 270 207.5 L 272 207.5 L 272 206 Z " /><path fill="rgb(0,0,0)" stroke="rgb(0,0,0)" stroke-width="1" opacity="0" d="M 223.5 235 L 226 236 L 224.5 239 L 222.5 240 L 221 237.5 L 223.5 235 Z " /><path fill="rgb(0,0,0)" stroke="rgb(0,0,0)" stroke-width="1" opacity="0" d="M 300 272 L 303 272.5 L 300 274 L 300 272 Z " /><path fill="rgb(0,0,0)" stroke="rgb(0,0,0)" stroke-width="1" opacity="0" d="M 249 318 L 254 318.5 L 249 320 L 249 318 Z " /><path fill="rgb(239,132,49)" stroke="rgb(239,132,49)" stroke-width="1" opacity="0.9607843137254902" d="M 273.5 155 L 276 155.5 L 273.5 156 L 273.5 155 Z " /><path fill="rgb(239,132,49)" stroke="rgb(239,132,49)" stroke-width="1" opacity="0.9607843137254902" d="M 271.5 157 L 270.5 159 L 271.5 157 Z " /><path fill="rgb(239,132,49)" stroke="rgb(239,132,49)" stroke-width="1" opacity="0.9607843137254902" d="M 279.5 157 L 280.5 159 L 279.5 157 Z " /><path fill="rgb(239,132,49)" stroke="rgb(239,132,49)" stroke-width="1" opacity="0.9607843137254902" d="M 231.5 160 L 230.5 162 L 231.5 160 Z " /><path fill="rgb(239,132,49)" stroke="rgb(239,132,49)" stroke-width="1" opacity="0.9607843137254902" d="M 274.5 160 L 280 163.5 Q 279.4 169.4 275.5 172 L 270 165.5 L 274.5 160 Z " /><path fill="rgb(239,132,49)" stroke="rgb(239,132,49)" stroke-width="1" opacity="0.9607843137254902" d="M 236.5 161 L 237.5 163 L 236.5 161 Z " /><path fill="rgb(239,132,49)" stroke="rgb(239,132,49)" stroke-width="1" opacity="0.9607843137254902" d="M 268.5 161 L 265.5 165 L 268.5 161 Z " /><path fill="rgb(239,132,49)" stroke="rgb(239,132,49)" stroke-width="1" opacity="0.9607843137254902" d="M 226.5 164 L 223.5 168 L 226.5 164 Z " /><path fill="rgb(239,132,49)" stroke="rgb(239,132,49)" stroke-width="1" opacity="0.9607843137254902" d="M 231.5 165 Q 236.1 163.7 234 169.5 L 233 173 Q 230.3 171.9 231 174.5 Q 229.3 177.8 222.5 176 L 223 174.5 Q 222.3 172.3 224.5 173 L 228 171.5 L 226 170.5 L 231.5 165 Z " /><path fill="rgb(239,132,49)" stroke="rgb(239,132,49)" stroke-width="1" opacity="0.9607843137254902" d="M 263.5 166 L 262.5 168 L 263.5 166 Z " /><path fill="rgb(239,132,49)" stroke="rgb(239,132,49)" stroke-width="1" opacity="0.9607843137254902" d="M 267.5 168 L 269.5 168 L 274 172.5 L 274 174.5 L 268.5 180 L 256.5 187 L 251.5 187 L 248 181.5 Q 259.9 176.9 267.5 168 Z " /><path fill="rgb(239,132,49)" stroke="rgb(239,132,49)" stroke-width="1" opacity="0.9607843137254902" d="M 283.5 168 L 282.5 170 L 283.5 168 Z " /><path fill="rgb(239,132,49)" stroke="rgb(239,132,49)" stroke-width="1" opacity="0.9607843137254902" d="M 221.5 169 L 220.5 171 L 221.5 169 Z " /><path fill="rgb(239,132,49)" stroke="rgb(239,132,49)" stroke-width="1" opacity="0.9607843137254902" d="M 245.5 169 L 249 169.5 L 246 170.5 L 249 171.5 L 247.5 175 L 241.5 177 L 237.5 176 Q 236.3 178.3 235 175.5 L 245.5 169 Z M 245 171 L 243 173 Q 245 176 246 173 Q 247 170 245 171 Z " /><path fill="rgb(239,132,49)" stroke="rgb(239,132,49)" stroke-width="1" opacity="0.9607843137254902" d="M 259.5 169 L 258.5 171 L 259.5 169 Z " /><path fill="rgb(239,132,49)" stroke="rgb(239,132,49)" stroke-width="1" opacity="0.9607843137254902" d="M 221.5 179 Q 237.2 176.8 245 182.5 L 249.5 190 L 255.5 191 L 258 190 L 262 199.5 L 264 215 Q 261.3 213.9 262 216.5 L 258.5 226 L 257 220.5 L 251.5 215 L 243 214 L 247 205.5 L 247 194.5 L 242.5 189 L 235.5 188 Q 229 189.5 226 194.5 L 224 197.5 L 225.5 198 L 227 197.5 Q 222.3 202.3 224 213.5 L 226 218 L 229.5 220 L 235.5 220 Q 239.1 215.6 246.5 215 L 250.5 216 L 255 220.5 L 256 227.5 Q 254.4 234.4 248.5 237 L 240.5 241 L 220.5 247 L 205.5 247 L 196 243 L 196.5 241 Q 202.8 246.7 216.5 245 Q 227.4 241.9 233 233.5 L 237 226 L 245.5 226 L 247 224.5 L 234 223 Q 235.5 226.7 232.5 226 L 224.5 232 L 215.5 236 Q 208 238.5 196.5 237 Q 185.4 234.6 180 226.5 L 178 220.5 L 181 221.5 L 180.5 215 L 179 215.5 L 181.5 212 Q 184.2 209.2 190.5 210 Q 199.1 211.6 204 216 Q 202.9 218.7 205.5 218 L 208 219.5 L 202.5 212 L 196 209 L 196 200.5 L 198 193.5 L 202.5 187 L 207 189.5 L 208.5 192 L 209 187.5 Q 204.8 185.2 209.5 183 L 221.5 179 Z M 189 218 L 186 221 L 188 223 Q 192 223 194 220 Q 193 217 189 218 Z " /><path fill="rgb(239,132,49)" stroke="rgb(239,132,49)" stroke-width="1" opacity="0.9607843137254902" d="M 199.5 183 L 202 183.5 L 197.5 186 L 199.5 183 Z " /><path fill="rgb(239,132,49)" stroke="rgb(239,132,49)" stroke-width="1" opacity="0.9607843137254902" d="M 270.5 183 L 270 184.5 L 269.5 186 L 269 184.5 L 270.5 183 Z " /><path fill="rgb(239,132,49)" stroke="rgb(239,132,49)" stroke-width="1" opacity="0.9607843137254902" d="M 196.5 187 L 197 188.5 L 195 189.5 L 196.5 187 Z " /><path fill="rgb(239,132,49)" stroke="rgb(239,132,49)" stroke-width="1" opacity="0.9607843137254902" d="M 306.5 190 L 311 190.5 L 306.5 191 L 306.5 190 Z " /><path fill="rgb(239,132,49)" stroke="rgb(239,132,49)" stroke-width="1" opacity="0.9607843137254902" d="M 333.5 192 L 337 193.5 L 335.5 193 Q 332.5 193.5 333.5 192 Z " /><path fill="rgb(239,132,49)" stroke="rgb(239,132,49)" stroke-width="1" opacity="0.9607843137254902" d="M 236.5 193 L 240 193.5 L 236.5 194 L 236.5 193 Z " /><path fill="rgb(239,132,49)" stroke="rgb(239,132,49)" stroke-width="1" opacity="0.9607843137254902" d="M 270.5 193 L 269.5 195 L 270.5 193 Z " /><path fill="rgb(239,132,49)" stroke="rgb(239,132,49)" stroke-width="1" opacity="0.9607843137254902" d="M 305.5 195 L 312 195.5 Q 290.5 197.5 279 209.5 L 280 212 L 282 212 Q 280.9 214.7 283.5 214 L 296 222.5 L 294.5 223 L 286.5 218 L 285 219.5 L 282 231.5 L 276 241 L 274 241 Q 275.1 243.7 272.5 243 Q 267.5 249 258.5 251 L 258.5 250 Q 268.4 246.9 274 239.5 L 281 228.5 L 282 216.5 L 280 217.5 L 278 229 L 276 228.5 L 277 227.5 L 277 213.5 L 276 209 L 293.5 198 L 305.5 195 Z " /><path fill="rgb(239,132,49)" stroke="rgb(239,132,49)" stroke-width="1" opacity="0.9607843137254902" d="M 239.5 197 L 240.5 199 L 239.5 197 Z " /><path fill="rgb(239,132,49)" stroke="rgb(239,132,49)" stroke-width="1" opacity="0.9607843137254902" d="M 316.5 198 L 324 198.5 Q 317.4 203.9 314 212.5 L 312 224.5 L 314 230.5 L 312.5 231 L 284 210.5 Q 283.3 208.3 285.5 209 L 297.5 202 L 316.5 198 Z " /><path fill="rgb(239,132,49)" stroke="rgb(239,132,49)" stroke-width="1" opacity="0.9607843137254902" d="M 273.5 201 L 275 205.5 L 272.5 206 L 273 204.5 L 273.5 201 Z " /><path fill="rgb(239,132,49)" stroke="rgb(239,132,49)" stroke-width="1" opacity="0.9607843137254902" d="M 279.5 201 L 278.5 203 L 276.5 204 L 277.5 202 L 279.5 201 Z " /><path fill="rgb(239,132,49)" stroke="rgb(239,132,49)" stroke-width="1" opacity="0.9607843137254902" d="M 229.5 203 L 228.5 205 L 227 204.5 L 229.5 203 Z " /><path fill="rgb(239,132,49)" stroke="rgb(239,132,49)" stroke-width="1" opacity="0.9607843137254902" d="M 266 203 L 268 203.5 L 266 204.5 L 266 203 Z " /><path fill="rgb(239,132,49)" stroke="rgb(239,132,49)" stroke-width="1" opacity="0.9607843137254902" d="M 325.5 203 L 324.5 205 L 325.5 203 Z " /><path fill="rgb(239,132,49)" stroke="rgb(239,132,49)" stroke-width="1" opacity="0.9607843137254902" d="M 322.5 206 L 320.5 209 L 322.5 206 Z " /><path fill="rgb(239,132,49)" stroke="rgb(239,132,49)" stroke-width="1" opacity="0.9607843137254902" d="M 180.5 207 L 179.5 209 L 180.5 207 Z " /><path fill="rgb(239,132,49)" stroke="rgb(239,132,49)" stroke-width="1" opacity="0.9607843137254902" d="M 228.5 207 L 229 208.5 L 227.5 213 L 227 209.5 L 228.5 207 Z " /><path fill="rgb(239,132,49)" stroke="rgb(239,132,49)" stroke-width="1" opacity="0.9607843137254902" d="M 271.5 207 L 273 209.5 L 272 209.5 L 271.5 208 L 270.5 213 L 270 208.5 L 271.5 207 Z " /><path fill="rgb(239,132,49)" stroke="rgb(239,132,49)" stroke-width="1" opacity="0.9607843137254902" d="M 272.5 211 L 273 213.5 L 272 213.5 L 272.5 211 Z " /><path fill="rgb(239,132,49)" stroke="rgb(239,132,49)" stroke-width="1" opacity="0.9607843137254902" d="M 175.5 212 L 176 213.5 L 174.5 217 L 174 214.5 L 175.5 212 Z " /><path fill="rgb(239,132,49)" stroke="rgb(239,132,49)" stroke-width="1" opacity="0.9607843137254902" d="M 269.5 216 L 270.5 218 L 269.5 216 Z " /><path fill="rgb(239,132,49)" stroke="rgb(239,132,49)" stroke-width="1" opacity="0.9607843137254902" d="M 174.5 221 L 175 223.5 L 174 223.5 L 174.5 221 Z " /><path fill="rgb(239,132,49)" stroke="rgb(239,132,49)" stroke-width="1" opacity="0.9607843137254902" d="M 272.5 221 L 273 223.5 L 271 224.5 L 272.5 221 Z " /><path fill="rgb(239,132,49)" stroke="rgb(239,132,49)" stroke-width="1" opacity="0.9607843137254902" d="M 288 223 L 295.5 226 L 313 237.5 Q 306.1 240.1 302 245.5 Q 302.8 248.1 299.5 247 L 298.5 246 L 288.5 246 L 278.5 251 L 273.5 251 L 267 253 Q 265.9 250.3 268.5 251 L 282 239.5 L 286 231.5 L 288 223 Z " /><path fill="rgb(239,132,49)" stroke="rgb(239,132,49)" stroke-width="1" opacity="0.9607843137254902" d="M 363.5 228 L 364 230.5 L 363 230.5 L 363.5 228 Z " /><path fill="rgb(239,132,49)" stroke="rgb(239,132,49)" stroke-width="1" opacity="0.9607843137254902" d="M 353.5 229 L 355 229.5 L 352.5 231 L 353.5 229 Z " /><path fill="rgb(239,132,49)" stroke="rgb(239,132,49)" stroke-width="1" opacity="0.9607843137254902" d="M 271.5 231 L 272 232.5 L 270 233.5 L 271.5 231 Z " /><path fill="rgb(239,132,49)" stroke="rgb(239,132,49)" stroke-width="1" opacity="0.9607843137254902" d="M 349.5 231 L 351 231.5 L 347.5 234 L 347 232 L 349.5 231 Z " /><path fill="rgb(239,132,49)" stroke="rgb(239,132,49)" stroke-width="1" opacity="0.9607843137254902" d="M 319.5 234 L 320.5 236 L 319.5 234 Z " /><path fill="rgb(239,132,49)" stroke="rgb(239,132,49)" stroke-width="1" opacity="0.9607843137254902" d="M 354.5 234 L 358 235.5 L 356 239.5 Q 357 247 355 250 Q 352.3 251.1 353 248.5 L 348.5 243 L 345 244 L 342.5 248 L 337 245.5 L 354.5 234 Z " /><path fill="rgb(239,132,49)" stroke="rgb(239,132,49)" stroke-width="1" opacity="0.9607843137254902" d="M 254.5 236 L 255 237.5 L 254 238.5 L 253 251.5 L 254 255 L 258.5 255 L 264.5 259 L 271.5 261 L 282.5 267 L 292 274.5 L 294 278.5 L 292.5 278 Q 286.7 273.8 275.5 275 Q 265.9 277.4 260 283.5 L 257 290 Q 253.2 291.5 254 288.5 L 249 282.5 L 261 273.5 Q 261.7 267.8 259 265.5 L 251.5 256 L 249 256.5 L 257 270.5 L 256 273 L 249.5 278 L 241.5 281 L 237 285.5 L 235 288.5 L 232 290.5 L 231 285.5 L 228.5 283 L 222 282 L 223.5 278 L 232.5 275 L 244 263.5 Q 245.3 259.8 241.5 261 L 238.5 265 L 238 256.5 L 241 245.5 L 244.5 242 L 254 238 L 254.5 236 Z " /><path fill="rgb(239,132,49)" stroke="rgb(239,132,49)" stroke-width="1" opacity="0.9607843137254902" d="M 217.5 239 L 220 240.5 L 214 243 L 215.5 240 L 217.5 239 Z " /><path fill="rgb(239,132,49)" stroke="rgb(239,132,49)" stroke-width="1" opacity="0.9607843137254902" d="M 189.5 241 L 190.5 243 L 189.5 241 Z " /><path fill="rgb(239,132,49)" stroke="rgb(239,132,49)" stroke-width="1" opacity="0.9607843137254902" d="M 263.5 242 L 262.5 244 L 263.5 242 Z " /><path fill="rgb(239,132,49)" stroke="rgb(239,132,49)" stroke-width="1" opacity="0.9607843137254902" d="M 237.5 244 Q 239.8 243.3 239 245.5 L 238 248 L 229 247.5 L 237.5 244 Z " /><path fill="rgb(239,132,49)" stroke="rgb(239,132,49)" stroke-width="1" opacity="0.9607843137254902" d="M 360.5 245 L 361 249.5 L 360 249.5 L 360.5 245 Z " /><path fill="rgb(239,132,49)" stroke="rgb(239,132,49)" stroke-width="1" opacity="0.9607843137254902" d="M 196.5 247 L 200 249.5 L 197.5 248 L 196.5 247 Z " /><path fill="rgb(239,132,49)" stroke="rgb(239,132,49)" stroke-width="1" opacity="0.9607843137254902" d="M 224.5 249 L 236.5 249 L 237 251.5 L 234.5 257 L 228.5 258 Q 226.8 255.2 220.5 257 L 219 255.5 L 224.5 249 Z " /><path fill="rgb(239,132,49)" stroke="rgb(239,132,49)" stroke-width="1" opacity="0.9607843137254902" d="M 291.5 249 L 295 249.5 L 291.5 250 L 291.5 249 Z " /><path fill="rgb(239,132,49)" stroke="rgb(239,132,49)" stroke-width="1" opacity="0.9607843137254902" d="M 347.5 249 Q 352.2 255.3 350 268.5 Q 347.7 282.2 338.5 289 L 335.5 291 L 321.5 299 L 313.5 301 L 302 301 L 303 296.5 L 303 294.5 L 302 287.5 L 297 277.5 L 299.5 277 L 303.5 279 L 315.5 280 L 324.5 278 L 332.5 274 L 340 266.5 L 347.5 249 Z " /><path fill="rgb(239,132,49)" stroke="rgb(239,132,49)" stroke-width="1" opacity="0.9607843137254902" d="M 209.5 251 L 212 251.5 L 209.5 252 L 209.5 251 Z " /><path fill="rgb(239,132,49)" stroke="rgb(239,132,49)" stroke-width="1" opacity="0.9607843137254902" d="M 360.5 255 L 361 257.5 L 360 257.5 L 360.5 255 Z " /><path fill="rgb(239,132,49)" stroke="rgb(239,132,49)" stroke-width="1" opacity="0.9607843137254902" d="M 190.5 256 L 194 256.5 L 190.5 257 L 190.5 256 Z " /><path fill="rgb(239,132,49)" stroke="rgb(239,132,49)" stroke-width="1" opacity="0.9607843137254902" d="M 278.5 256 L 280.5 257 L 282 256.5 L 279.5 258 L 278.5 256 Z " /><path fill="rgb(239,132,49)" stroke="rgb(239,132,49)" stroke-width="1" opacity="0.9607843137254902" d="M 188.5 257 L 187.5 259 L 188.5 257 Z " /><path fill="rgb(239,132,49)" stroke="rgb(239,132,49)" stroke-width="1" opacity="0.9607843137254902" d="M 218.5 257 Q 223.6 260.4 233.5 259 L 235 258.5 L 235 267 L 220.5 267 L 215 265 L 216 259.5 L 218.5 257 Z " /><path fill="rgb(239,132,49)" stroke="rgb(239,132,49)" stroke-width="1" opacity="0.9607843137254902" d="M 212.5 258 L 210.5 261 L 212.5 258 Z " /><path fill="rgb(239,132,49)" stroke="rgb(239,132,49)" stroke-width="1" opacity="0.9607843137254902" d="M 290.5 258 L 291 263.5 L 290 263.5 L 290.5 258 Z " /><path fill="rgb(239,132,49)" stroke="rgb(239,132,49)" stroke-width="1" opacity="0.9607843137254902" d="M 186.5 260 L 187 263.5 L 186 263.5 L 186.5 260 Z " /><path fill="rgb(239,132,49)" stroke="rgb(239,132,49)" stroke-width="1" opacity="0.9607843137254902" d="M 191 261 L 199.5 268 L 204.5 269 L 210.5 266 L 210 267.5 L 210 277.5 L 208.5 278 L 203 279 L 200.5 283 Q 195.9 284.4 198 278.5 L 194.5 274 L 187 269.5 L 191 266.5 L 191 261 Z " /><path fill="rgb(239,132,49)" stroke="rgb(239,132,49)" stroke-width="1" opacity="0.9607843137254902" d="M 206.5 261 L 209 261.5 L 206.5 262 L 206.5 261 Z " /><path fill="rgb(239,132,49)" stroke="rgb(239,132,49)" stroke-width="1" opacity="0.9607843137254902" d="M 353.5 263 L 354 265.5 L 353 265.5 L 353.5 263 Z " /><path fill="rgb(239,132,49)" stroke="rgb(239,132,49)" stroke-width="1" opacity="0.9607843137254902" d="M 183.5 266 L 183 267.5 L 182.5 270 L 182 267.5 L 183.5 266 Z " /><path fill="rgb(239,132,49)" stroke="rgb(239,132,49)" stroke-width="1" opacity="0.9607843137254902" d="M 214.5 266 L 219.5 268 L 235 268.5 L 231.5 272 L 226.5 273 L 217 278.5 L 219 279.5 L 218 282.5 Q 220.5 287.3 228 286 L 227.5 291 Q 226 288.5 220.5 290 L 215 286.5 L 214 278 L 217 277.5 L 213 275.5 L 214.5 266 Z " /><path fill="rgb(239,132,49)" stroke="rgb(239,132,49)" stroke-width="1" opacity="0.9607843137254902" d="M 315.5 267 L 319 267.5 L 315.5 268 L 315.5 267 Z " /><path fill="rgb(239,132,49)" stroke="rgb(239,132,49)" stroke-width="1" opacity="0.9607843137254902" d="M 302.5 269 Q 305.5 270.5 302.5 272 L 301 271.5 L 302.5 269 Z " /><path fill="rgb(239,132,49)" stroke="rgb(239,132,49)" stroke-width="1" opacity="0.9607843137254902" d="M 305.5 269 L 309 270.5 L 307.5 270 Q 304.5 270.5 305.5 269 Z " /><path fill="rgb(239,132,49)" stroke="rgb(239,132,49)" stroke-width="1" opacity="0.9607843137254902" d="M 312.5 270 L 311.5 272 L 312.5 270 Z " /><path fill="rgb(239,132,49)" stroke="rgb(239,132,49)" stroke-width="1" opacity="0.9607843137254902" d="M 185.5 273 L 189 275.5 L 187.5 276 L 185.5 273 Z " /><path fill="rgb(239,132,49)" stroke="rgb(239,132,49)" stroke-width="1" opacity="0.9607843137254902" d="M 276.5 278 Q 291.5 277.5 297 286.5 Q 299.7 289.8 299 296.5 Q 296.5 307 289 312.5 L 289 317.5 L 290 320.5 L 283.5 325 L 281.5 325 L 276.5 327 Q 275 324.5 273.5 328 L 265 329 Q 263.9 326.3 266.5 327 L 270.5 325 L 272 325.5 L 270.5 323 L 266.5 323 L 266 321 L 263.5 321 L 263.5 320 L 278.5 321 L 282 320 Q 283.1 317.3 280.5 318 L 269.5 315 L 261 307.5 Q 257.7 302.8 259 293.5 L 264 284 L 276.5 278 Z " /><path fill="rgb(239,132,49)" stroke="rgb(239,132,49)" stroke-width="1" opacity="0.9607843137254902" d="M 206.5 283 L 210 283.5 L 206.5 284 L 206.5 283 Z " /><path fill="rgb(239,132,49)" stroke="rgb(239,132,49)" stroke-width="1" opacity="0.9607843137254902" d="M 243.5 284 Q 247.5 283.5 248 286.5 L 252.5 292 L 256 294.5 Q 256.8 296.8 254.5 296 L 252 297.5 L 256 298 L 258 307.5 L 252.5 310 L 240.5 311 L 227 302.5 L 243.5 302 L 247 300.5 L 241.5 300 L 240.5 301 L 228.5 301 L 222 298.5 L 217 290.5 L 218.5 290 Q 221.8 292.7 228.5 292 L 230.5 294 L 234.5 294 Q 236.7 290.7 242 290.5 L 238 289.5 L 240 286 L 243.5 284 Z M 246 288 L 243 289 L 243 290 L 248 289 L 246 288 Z M 250 298 L 248 299 L 248 300 L 252 299 L 250 298 Z " /><path fill="rgb(239,132,49)" stroke="rgb(239,132,49)" stroke-width="1" opacity="0.9607843137254902" d="M 204.5 285 L 203.5 287 L 204.5 285 Z " /><path fill="rgb(239,132,49)" stroke="rgb(239,132,49)" stroke-width="1" opacity="0.9607843137254902" d="M 195.5 286 L 196.5 288 L 195.5 286 Z " /><path fill="rgb(239,132,49)" stroke="rgb(239,132,49)" stroke-width="1" opacity="0.9607843137254902" d="M 346.5 289 L 345.5 291 L 346.5 289 Z " /><path fill="rgb(239,132,49)" stroke="rgb(239,132,49)" stroke-width="1" opacity="0.9607843137254902" d="M 341.5 296 L 336.5 302 L 341.5 296 Z " /><path fill="rgb(239,132,49)" stroke="rgb(239,132,49)" stroke-width="1" opacity="0.9607843137254902" d="M 331.5 297 L 331 298.5 Q 332.1 301.8 329.5 301 L 316.5 310 L 301.5 314 L 294 314 Q 292.9 311.3 295.5 312 L 301.5 305 L 316.5 304 Q 318.2 301.2 323.5 302 L 331.5 297 Z " /><path fill="rgb(239,132,49)" stroke="rgb(239,132,49)" stroke-width="1" opacity="0.9607843137254902" d="M 219.5 300 L 227.5 308 L 244 316.5 L 242.5 319 L 237.5 319 L 218 324 L 220.5 320 L 224.5 321 L 225 319.5 L 220 316.5 L 233 316 Q 234.5 312.2 231.5 313 L 222 307 L 219.5 300 Z " /><path fill="rgb(239,132,49)" stroke="rgb(239,132,49)" stroke-width="1" opacity="0.9607843137254902" d="M 215.5 303 L 217 305.5 L 215 304.5 L 215.5 303 Z " /><path fill="rgb(239,132,49)" stroke="rgb(239,132,49)" stroke-width="1" opacity="0.9607843137254902" d="M 334.5 303 L 336 303.5 L 333.5 305 L 334.5 303 Z " /><path fill="rgb(239,132,49)" stroke="rgb(239,132,49)" stroke-width="1" opacity="0.9607843137254902" d="M 258.5 309 L 261 313 Q 264 312 263 315 L 255.5 315 L 247 312.5 L 258.5 309 Z " /><path fill="rgb(239,132,49)" stroke="rgb(239,132,49)" stroke-width="1" opacity="0.9607843137254902" d="M 326.5 309 L 325.5 311 L 326.5 309 Z " /><path fill="rgb(239,132,49)" stroke="rgb(239,132,49)" stroke-width="1" opacity="0.9607843137254902" d="M 320.5 312 L 319.5 314 L 320.5 312 Z " /><path fill="rgb(239,132,49)" stroke="rgb(239,132,49)" stroke-width="1" opacity="0.9607843137254902" d="M 315.5 314 L 314.5 316 L 315.5 314 Z " /><path fill="rgb(239,132,49)" stroke="rgb(239,132,49)" stroke-width="1" opacity="0.9607843137254902" d="M 209.5 317 Q 212.1 316.3 211 319 L 208 318.5 L 209.5 317 Z " /><path fill="rgb(239,132,49)" stroke="rgb(239,132,49)" stroke-width="1" opacity="0.9607843137254902" d="M 215.5 317 Q 218.8 315.9 218 318.5 Q 217.3 321.8 212.5 321 L 215.5 317 Z " /><path fill="rgb(239,132,49)" stroke="rgb(239,132,49)" stroke-width="1" opacity="0.9607843137254902" d="M 298.5 318 L 301 318.5 L 298.5 319 L 298.5 318 Z " /><path fill="rgb(239,132,49)" stroke="rgb(239,132,49)" stroke-width="1" opacity="0.9607843137254902" d="M 248.5 320 L 250 320.5 L 248 321.5 L 248.5 323 L 246 322.5 L 248.5 320 Z " /><path fill="rgb(239,132,49)" stroke="rgb(239,132,49)" stroke-width="1" opacity="0.9607843137254902" d="M 253.5 322 Q 257.7 320.9 256 325 L 252 325 L 252 323.5 L 253.5 322 Z " /><path fill="rgb(239,132,49)" stroke="rgb(239,132,49)" stroke-width="1" opacity="0.9607843137254902" d="M 260.5 323 Q 264.9 321.5 264 324.5 L 263 327 Q 259.2 328 258 325.5 L 260.5 323 Z " /><path fill="rgb(239,132,49)" stroke="rgb(239,132,49)" stroke-width="1" opacity="0.9607843137254902" d="M 214.5 326 L 218 327.5 L 215.5 328 L 214.5 326 Z " /><path fill="rgb(239,132,49)" stroke="rgb(239,132,49)" stroke-width="1" opacity="0.9607843137254902" d="M 220.5 327 L 224 327.5 L 220.5 328 L 220.5 327 Z " /><path fill="rgb(239,132,49)" stroke="rgb(239,132,49)" stroke-width="1" opacity="0.9607843137254902" d="M 259.5 331 L 262 331.5 L 259.5 332 L 259.5 331 Z " /><path fill="rgb(239,132,49)" stroke="rgb(239,132,49)" stroke-width="1" opacity="0.9607843137254902" d="M 266.5 333 L 270 333.5 L 266.5 334 L 266.5 333 Z " /><path fill="rgb(125,43,37)" stroke="rgb(125,43,37)" stroke-width="1" opacity="0.8784313725490196" d="M 273.5 156 L 275 156.5 L 271.5 159 L 273.5 156 Z " /><path fill="rgb(125,43,37)" stroke="rgb(125,43,37)" stroke-width="1" opacity="0.8784313725490196" d="M 278.5 157 L 283 160.5 L 281.5 161 L 278.5 157 Z " /><path fill="rgb(125,43,37)" stroke="rgb(125,43,37)" stroke-width="1" opacity="0.8784313725490196" d="M 275.5 159 L 276.5 161 L 275.5 159 Z " /><path fill="rgb(125,43,37)" stroke="rgb(125,43,37)" stroke-width="1" opacity="0.8784313725490196" d="M 232.5 160 L 230.5 163 L 232.5 160 Z " /><path fill="rgb(125,43,37)" stroke="rgb(125,43,37)" stroke-width="1" opacity="0.8784313725490196" d="M 235.5 161 L 238 164.5 L 237 164.5 L 235.5 161 Z " /><path fill="rgb(125,43,37)" stroke="rgb(125,43,37)" stroke-width="1" opacity="0.8784313725490196" d="M 278.5 161 L 279.5 163 L 278.5 161 Z " /><path fill="rgb(125,43,37)" stroke="rgb(125,43,37)" stroke-width="1" opacity="0.8784313725490196" d="M 272.5 162 L 270.5 165 L 272.5 162 Z " /><path fill="rgb(125,43,37)" stroke="rgb(125,43,37)" stroke-width="1" opacity="0.8784313725490196" d="M 283.5 162 L 284 164.5 L 283 164.5 L 283.5 162 Z " /><path fill="rgb(125,43,37)" stroke="rgb(125,43,37)" stroke-width="1" opacity="0.8784313725490196" d="M 228.5 163 L 228 164.5 Q 228.8 166.8 226.5 166 L 218 177 L 214.5 178 L 214.5 177 L 220 172.5 L 228.5 163 Z " /><path fill="rgb(125,43,37)" stroke="rgb(125,43,37)" stroke-width="1" opacity="0.8784313725490196" d="M 244.5 165 L 243.5 167 L 244.5 165 Z " /><path fill="rgb(125,43,37)" stroke="rgb(125,43,37)" stroke-width="1" opacity="0.8784313725490196" d="M 234.5 166 L 235 168.5 L 234 168.5 L 234.5 166 Z " /><path fill="rgb(125,43,37)" stroke="rgb(125,43,37)" stroke-width="1" opacity="0.8784313725490196" d="M 270.5 167 L 275.5 172 L 278 170.5 L 274 173.5 L 274 171 Q 271.3 172.1 272 169.5 L 270.5 167 Z " /><path fill="rgb(125,43,37)" stroke="rgb(125,43,37)" stroke-width="1" opacity="0.8784313725490196" d="M 246.5 168 L 250 169.5 L 249 174.5 Q 251.3 175.8 248.5 177 L 244.5 179 L 237 176.5 L 240.5 176 L 242.5 177 L 249 173.5 L 248.5 171 Q 245.2 169.9 246 172.5 L 242.5 174 L 240.5 175 L 241.5 173 L 249 169.5 Q 245.7 169.6 246.5 168 Z " /><path fill="rgb(125,43,37)" stroke="rgb(125,43,37)" stroke-width="1" opacity="0.8784313725490196" d="M 281.5 169 L 282 170.5 L 280 171.5 L 281.5 169 Z " /><path fill="rgb(125,43,37)" stroke="rgb(125,43,37)" stroke-width="1" opacity="0.8784313725490196" d="M 241.5 170 L 243 170.5 L 240.5 172 L 241.5 170 Z " /><path fill="rgb(125,43,37)" stroke="rgb(125,43,37)" stroke-width="1" opacity="0.8784313725490196" d="M 225.5 171 L 230 172.5 L 228.5 173 L 225.5 172 L 224 172.5 L 225.5 171 Z " /><path fill="rgb(125,43,37)" stroke="rgb(125,43,37)" stroke-width="1" opacity="0.8784313725490196" d="M 263.5 171 L 262.5 173 L 263.5 171 Z " /><path fill="rgb(125,43,37)" stroke="rgb(125,43,37)" stroke-width="1" opacity="0.8784313725490196" d="M 238.5 172 L 236.5 175 L 238.5 172 Z " /><path fill="rgb(125,43,37)" stroke="rgb(125,43,37)" stroke-width="1" opacity="0.8784313725490196" d="M 231.5 173 L 232 174.5 L 230 175.5 L 231.5 173 Z " /><path fill="rgb(125,43,37)" stroke="rgb(125,43,37)" stroke-width="1" opacity="0.8784313725490196" d="M 260.5 173 L 259.5 175 L 260.5 173 Z " /><path fill="rgb(125,43,37)" stroke="rgb(125,43,37)" stroke-width="1" opacity="0.8784313725490196" d="M 257.5 175 L 256.5 177 L 257.5 175 Z " /><path fill="rgb(125,43,37)" stroke="rgb(125,43,37)" stroke-width="1" opacity="0.8784313725490196" d="M 273.5 175 L 270.5 179 L 273.5 175 Z " /><path fill="rgb(125,43,37)" stroke="rgb(125,43,37)" stroke-width="1" opacity="0.8784313725490196" d="M 222.5 176 L 226 176.5 L 222.5 177 L 222.5 176 Z " /><path fill="rgb(125,43,37)" stroke="rgb(125,43,37)" stroke-width="1" opacity="0.8784313725490196" d="M 240.5 180 L 243 180.5 L 240.5 181 L 240.5 180 Z " /><path fill="rgb(125,43,37)" stroke="rgb(125,43,37)" stroke-width="1" opacity="0.8784313725490196" d="M 267.5 180 L 269 180.5 L 265.5 183 L 267.5 180 Z " /><path fill="rgb(125,43,37)" stroke="rgb(125,43,37)" stroke-width="1" opacity="0.8784313725490196" d="M 244.5 181 L 247 184.5 L 245 183.5 L 244.5 181 Z " /><path fill="rgb(125,43,37)" stroke="rgb(125,43,37)" stroke-width="1" opacity="0.8784313725490196" d="M 270.5 182 L 269.5 184 L 270.5 182 Z " /><path fill="rgb(125,43,37)" stroke="rgb(125,43,37)" stroke-width="1" opacity="0.8784313725490196" d="M 208.5 183 L 207.5 185 L 208.5 183 Z " /><path fill="rgb(125,43,37)" stroke="rgb(125,43,37)" stroke-width="1" opacity="0.8784313725490196" d="M 198.5 185 L 198 186.5 L 197.5 188 L 197 186.5 L 198.5 185 Z " /><path fill="rgb(125,43,37)" stroke="rgb(125,43,37)" stroke-width="1" opacity="0.8784313725490196" d="M 207.5 186 L 208.5 188 L 207.5 186 Z " /><path fill="rgb(125,43,37)" stroke="rgb(125,43,37)" stroke-width="1" opacity="0.8784313725490196" d="M 250.5 186 L 255 187.5 L 251.5 188 L 250.5 186 Z " /><path fill="rgb(125,43,37)" stroke="rgb(125,43,37)" stroke-width="1" opacity="0.8784313725490196" d="M 201.5 187 L 200.5 189 L 201.5 187 Z " /><path fill="rgb(125,43,37)" stroke="rgb(125,43,37)" stroke-width="1" opacity="0.8784313725490196" d="M 235.5 188 L 241 188.5 L 235.5 189 L 235.5 188 Z " /><path fill="rgb(125,43,37)" stroke="rgb(125,43,37)" stroke-width="1" opacity="0.8784313725490196" d="M 248.5 188 L 249.5 190 L 248.5 188 Z " /><path fill="rgb(125,43,37)" stroke="rgb(125,43,37)" stroke-width="1" opacity="0.8784313725490196" d="M 232.5 189 L 234 189.5 L 226.5 195 L 230.5 190 L 232.5 189 Z " /><path fill="rgb(125,43,37)" stroke="rgb(125,43,37)" stroke-width="1" opacity="0.8784313725490196" d="M 242.5 189 L 247 195.5 L 246 195.5 L 242.5 189 Z " /><path fill="rgb(125,43,37)" stroke="rgb(125,43,37)" stroke-width="1" opacity="0.8784313725490196" d="M 261 189 L 267 189 L 267 191.5 L 263.5 195 L 262 193.5 L 261 189 Z " /><path fill="rgb(125,43,37)" stroke="rgb(125,43,37)" stroke-width="1" opacity="0.8784313725490196" d="M 207.5 190 L 208.5 192 L 207.5 190 Z " /><path fill="rgb(125,43,37)" stroke="rgb(125,43,37)" stroke-width="1" opacity="0.8784313725490196" d="M 251.5 190 L 256 190.5 L 251.5 191 L 251.5 190 Z " /><path fill="rgb(125,43,37)" stroke="rgb(125,43,37)" stroke-width="1" opacity="0.8784313725490196" d="M 325.5 191 L 328 191.5 L 325.5 192 L 325.5 191 Z " /><path fill="rgb(125,43,37)" stroke="rgb(125,43,37)" stroke-width="1" opacity="0.8784313725490196" d="M 299.5 192 L 302 192.5 L 299.5 193 L 299.5 192 Z " /><path fill="rgb(125,43,37)" stroke="rgb(125,43,37)" stroke-width="1" opacity="0.8784313725490196" d="M 233.5 194 L 232.5 196 L 233.5 194 Z " /><path fill="rgb(125,43,37)" stroke="rgb(125,43,37)" stroke-width="1" opacity="0.8784313725490196" d="M 307.5 194 L 324.5 194 L 328 195.5 L 321.5 196 L 319.5 196 L 307.5 195 L 307.5 194 Z " /><path fill="rgb(125,43,37)" stroke="rgb(125,43,37)" stroke-width="1" opacity="0.8784313725490196" d="M 336.5 194 L 337 195.5 L 334.5 197 L 334.5 196 Q 337 196.7 336.5 194 Z " /><path fill="rgb(125,43,37)" stroke="rgb(125,43,37)" stroke-width="1" opacity="0.8784313725490196" d="M 225.5 196 L 227 196.5 L 226.5 199 L 224 197.5 L 225.5 196 Z " /><path fill="rgb(125,43,37)" stroke="rgb(125,43,37)" stroke-width="1" opacity="0.8784313725490196" d="M 288.5 196 L 290 196.5 L 285.5 199 L 285.5 198 L 288.5 196 Z " /><path fill="rgb(125,43,37)" stroke="rgb(125,43,37)" stroke-width="1" opacity="0.8784313725490196" d="M 297.5 196 L 299 196.5 L 296.5 198 L 297.5 196 Z " /><path fill="rgb(125,43,37)" stroke="rgb(125,43,37)" stroke-width="1" opacity="0.8784313725490196" d="M 306.5 196 L 309 196.5 L 306.5 197 L 306.5 196 Z " /><path fill="rgb(125,43,37)" stroke="rgb(125,43,37)" stroke-width="1" opacity="0.8784313725490196" d="M 229 197 L 231 197.5 L 227.5 203 L 227 201.5 L 229 197 Z " /><path fill="rgb(125,43,37)" stroke="rgb(125,43,37)" stroke-width="1" opacity="0.8784313725490196" d="M 235.5 197 L 239 197.5 Q 234.8 197.3 233.5 200 L 233 198 L 235.5 197 Z " /><path fill="rgb(125,43,37)" stroke="rgb(125,43,37)" stroke-width="1" opacity="0.8784313725490196" d="M 309.5 198 L 316 198.5 L 309.5 199 L 309.5 198 Z " /><path fill="rgb(125,43,37)" stroke="rgb(125,43,37)" stroke-width="1" opacity="0.8784313725490196" d="M 324.5 198 L 321.5 202 L 324.5 198 Z " /><path fill="rgb(125,43,37)" stroke="rgb(125,43,37)" stroke-width="1" opacity="0.8784313725490196" d="M 283.5 199 L 282.5 201 L 283.5 199 Z " /><path fill="rgb(125,43,37)" stroke="rgb(125,43,37)" stroke-width="1" opacity="0.8784313725490196" d="M 244.5 200 L 245 204.5 L 244 204.5 L 244.5 200 Z " /><path fill="rgb(125,43,37)" stroke="rgb(125,43,37)" stroke-width="1" opacity="0.8784313725490196" d="M 272.5 200 L 273 204.5 L 272 204.5 L 272.5 200 Z " /><path fill="rgb(125,43,37)" stroke="rgb(125,43,37)" stroke-width="1" opacity="0.8784313725490196" d="M 301.5 200 L 304 200.5 L 299.5 202 L 299.5 201 L 301.5 200 Z " /><path fill="rgb(125,43,37)" stroke="rgb(125,43,37)" stroke-width="1" opacity="0.8784313725490196" d="M 265 201 L 270 202 L 267.5 206 L 265.5 207 L 265 201 Z M 266 203 L 266 205 L 268 204 L 266 203 Z " /><path fill="rgb(125,43,37)" stroke="rgb(125,43,37)" stroke-width="1" opacity="0.8784313725490196" d="M 284.5 202 L 283.5 204 L 284.5 202 Z " /><path fill="rgb(125,43,37)" stroke="rgb(125,43,37)" stroke-width="1" opacity="0.8784313725490196" d="M 295.5 202 L 297 202.5 L 291.5 205 L 291.5 204 L 295.5 202 Z " /><path fill="rgb(125,43,37)" stroke="rgb(125,43,37)" stroke-width="1" opacity="0.8784313725490196" d="M 192.5 203 L 193 206.5 L 191 207.5 L 192.5 203 Z " /><path fill="rgb(125,43,37)" stroke="rgb(125,43,37)" stroke-width="1" opacity="0.8784313725490196" d="M 230.5 203 L 231.5 205 L 230 204.5 L 229.5 207 L 229 204.5 L 230.5 203 Z " /><path fill="rgb(125,43,37)" stroke="rgb(125,43,37)" stroke-width="1" opacity="0.8784313725490196" d="M 281.5 204 L 277.5 209 L 281.5 204 Z " /><path fill="rgb(125,43,37)" stroke="rgb(125,43,37)" stroke-width="1" opacity="0.8784313725490196" d="M 285.5 204 L 284.5 206 L 285.5 204 Z " /><path fill="rgb(125,43,37)" stroke="rgb(125,43,37)" stroke-width="1" opacity="0.8784313725490196" d="M 319.5 204 L 317.5 207 L 319.5 204 Z " /><path fill="rgb(125,43,37)" stroke="rgb(125,43,37)" stroke-width="1" opacity="0.8784313725490196" d="M 289.5 205 L 288.5 207 L 289.5 205 Z " /><path fill="rgb(125,43,37)" stroke="rgb(125,43,37)" stroke-width="1" opacity="0.8784313725490196" d="M 186.5 206 L 189 206.5 L 186.5 207 L 186.5 206 Z " /><path fill="rgb(125,43,37)" stroke="rgb(125,43,37)" stroke-width="1" opacity="0.8784313725490196" d="M 274.5 206 L 273.5 208 L 274.5 206 Z " /><path fill="rgb(125,43,37)" stroke="rgb(125,43,37)" stroke-width="1" opacity="0.8784313725490196" d="M 282.5 206 L 279.5 210 L 282.5 206 Z " /><path fill="rgb(125,43,37)" stroke="rgb(125,43,37)" stroke-width="1" opacity="0.8784313725490196" d="M 245.5 207 L 246 208.5 L 243.5 212 L 244 210.5 L 245.5 207 Z " /><path fill="rgb(125,43,37)" stroke="rgb(125,43,37)" stroke-width="1" opacity="0.8784313725490196" d="M 286.5 207 L 285.5 209 L 286.5 207 Z " /><path fill="rgb(125,43,37)" stroke="rgb(125,43,37)" stroke-width="1" opacity="0.8784313725490196" d="M 178.5 209 L 178 210.5 Q 178.8 212.8 176.5 212 L 178.5 209 Z " /><path fill="rgb(125,43,37)" stroke="rgb(125,43,37)" stroke-width="1" opacity="0.8784313725490196" d="M 263.5 209 L 265 212.5 L 264 212.5 L 263.5 209 Z " /><path fill="rgb(125,43,37)" stroke="rgb(125,43,37)" stroke-width="1" opacity="0.8784313725490196" d="M 273.5 209 L 272.5 211 L 273.5 209 Z " /><path fill="rgb(125,43,37)" stroke="rgb(125,43,37)" stroke-width="1" opacity="0.8784313725490196" d="M 199.5 210 L 200.5 212 L 199.5 210 Z " /><path fill="rgb(125,43,37)" stroke="rgb(125,43,37)" stroke-width="1" opacity="0.8784313725490196" d="M 283.5 210 L 285.5 213 L 283.5 210 Z " /><path fill="rgb(125,43,37)" stroke="rgb(125,43,37)" stroke-width="1" opacity="0.8784313725490196" d="M 181.5 211 L 183 211.5 L 179.5 214 L 181.5 211 Z " /><path fill="rgb(125,43,37)" stroke="rgb(125,43,37)" stroke-width="1" opacity="0.8784313725490196" d="M 202.5 212 L 205.5 216 L 202.5 212 Z " /><path fill="rgb(125,43,37)" stroke="rgb(125,43,37)" stroke-width="1" opacity="0.8784313725490196" d="M 282.5 212 L 284.5 215 L 282 214 L 282.5 212 Z " /><path fill="rgb(125,43,37)" stroke="rgb(125,43,37)" stroke-width="1" opacity="0.8784313725490196" d="M 242.5 213 L 244 216 L 240.5 217 L 241.5 215 L 243 214.5 L 242.5 213 Z " /><path fill="rgb(125,43,37)" stroke="rgb(125,43,37)" stroke-width="1" opacity="0.8784313725490196" d="M 276.5 213 L 277 216.5 L 276 216.5 L 276.5 213 Z " /><path fill="rgb(125,43,37)" stroke="rgb(125,43,37)" stroke-width="1" opacity="0.8784313725490196" d="M 201.5 214 L 202.5 216 L 201.5 214 Z " /><path fill="rgb(125,43,37)" stroke="rgb(125,43,37)" stroke-width="1" opacity="0.8784313725490196" d="M 248.5 214 L 254 217.5 Q 253.3 219.8 255.5 219 L 257 221.5 L 255 222.5 L 256 220.5 L 252 217.5 Q 252.9 214.1 247.5 216 L 248.5 214 Z " /><path fill="rgb(125,43,37)" stroke="rgb(125,43,37)" stroke-width="1" opacity="0.8784313725490196" d="M 264.5 214 L 263.5 216 L 262 215.5 L 264.5 214 Z " /><path fill="rgb(125,43,37)" stroke="rgb(125,43,37)" stroke-width="1" opacity="0.8784313725490196" d="M 288.5 214 L 289.5 216 L 288.5 214 Z " /><path fill="rgb(125,43,37)" stroke="rgb(125,43,37)" stroke-width="1" opacity="0.8784313725490196" d="M 178.5 215 Q 177.9 220 181 221.5 L 178 219.5 L 178.5 215 Z " /><path fill="rgb(125,43,37)" stroke="rgb(125,43,37)" stroke-width="1" opacity="0.8784313725490196" d="M 286.5 215 L 287.5 217 L 286.5 215 Z " /><path fill="rgb(125,43,37)" stroke="rgb(125,43,37)" stroke-width="1" opacity="0.8784313725490196" d="M 281.5 216 L 281 217.5 L 280.5 220 L 280 217.5 L 281.5 216 Z " /><path fill="rgb(125,43,37)" stroke="rgb(125,43,37)" stroke-width="1" opacity="0.8784313725490196" d="M 291.5 216 L 292.5 218 L 291.5 216 Z " /><path fill="rgb(125,43,37)" stroke="rgb(125,43,37)" stroke-width="1" opacity="0.8784313725490196" d="M 174.5 217 L 175 220.5 L 174 220.5 L 174.5 217 Z " /><path fill="rgb(125,43,37)" stroke="rgb(125,43,37)" stroke-width="1" opacity="0.8784313725490196" d="M 206.5 217 L 208 219.5 L 206 218.5 L 206.5 217 Z " /><path fill="rgb(125,43,37)" stroke="rgb(125,43,37)" stroke-width="1" opacity="0.8784313725490196" d="M 188.5 218 L 187 220.5 L 186.5 222 L 186 220.5 L 188.5 218 Z " /><path fill="rgb(125,43,37)" stroke="rgb(125,43,37)" stroke-width="1" opacity="0.8784313725490196" d="M 265.5 218 Q 268.8 219.2 268 223 L 263.5 224 L 263 221.5 L 265.5 218 Z " /><path fill="rgb(125,43,37)" stroke="rgb(125,43,37)" stroke-width="1" opacity="0.8784313725490196" d="M 286.5 218 L 285.5 220 L 286.5 218 Z " /><path fill="rgb(125,43,37)" stroke="rgb(125,43,37)" stroke-width="1" opacity="0.8784313725490196" d="M 290.5 218 L 295 221.5 L 292.5 222 L 290 220.5 L 290.5 218 Z " /><path fill="rgb(125,43,37)" stroke="rgb(125,43,37)" stroke-width="1" opacity="0.8784313725490196" d="M 294.5 218 L 295.5 220 L 294.5 218 Z " /><path fill="rgb(125,43,37)" stroke="rgb(125,43,37)" stroke-width="1" opacity="0.8784313725490196" d="M 193.5 219 L 191.5 222 L 190 221.5 L 193.5 219 Z " /><path fill="rgb(125,43,37)" stroke="rgb(125,43,37)" stroke-width="1" opacity="0.8784313725490196" d="M 315.5 219 L 316 224.5 L 315 224.5 L 315.5 219 Z " /><path fill="rgb(125,43,37)" stroke="rgb(125,43,37)" stroke-width="1" opacity="0.8784313725490196" d="M 297.5 220 L 298.5 222 L 297.5 220 Z " /><path fill="rgb(125,43,37)" stroke="rgb(125,43,37)" stroke-width="1" opacity="0.8784313725490196" d="M 312.5 220 L 313 224.5 L 312 224.5 L 312.5 220 Z " /><path fill="rgb(125,43,37)" stroke="rgb(125,43,37)" stroke-width="1" opacity="0.8784313725490196" d="M 284.5 222 L 285 224.5 L 284 224.5 L 284.5 222 Z " /><path fill="rgb(125,43,37)" stroke="rgb(125,43,37)" stroke-width="1" opacity="0.8784313725490196" d="M 288.5 222 L 291 223.5 L 289.5 223 Q 287.3 222.3 288 224.5 L 287 224.5 L 288.5 222 Z " /><path fill="rgb(125,43,37)" stroke="rgb(125,43,37)" stroke-width="1" opacity="0.8784313725490196" d="M 296.5 222 L 310 231.5 L 308.5 231 L 295 223.5 L 296.5 222 Z " /><path fill="rgb(125,43,37)" stroke="rgb(125,43,37)" stroke-width="1" opacity="0.8784313725490196" d="M 300.5 222 L 301.5 224 L 300.5 222 Z " /><path fill="rgb(125,43,37)" stroke="rgb(125,43,37)" stroke-width="1" opacity="0.8784313725490196" d="M 246.5 224 L 245.5 226 L 244 225.5 L 246.5 224 Z " /><path fill="rgb(125,43,37)" stroke="rgb(125,43,37)" stroke-width="1" opacity="0.8784313725490196" d="M 257.5 224 L 258.5 226 L 259.5 224 L 260 225.5 L 255 238.5 L 254.5 244 L 254 238 L 249.5 240 L 249.5 239 L 251 239 L 251 237 L 253 237 L 253 235 Q 255.7 236.1 255 233.5 Q 258.2 230.7 257.5 224 Z " /><path fill="rgb(125,43,37)" stroke="rgb(125,43,37)" stroke-width="1" opacity="0.8784313725490196" d="M 270.5 224 L 269.5 226 L 270.5 224 Z " /><path fill="rgb(125,43,37)" stroke="rgb(125,43,37)" stroke-width="1" opacity="0.8784313725490196" d="M 276.5 224 L 277 227.5 L 276 227.5 L 276.5 224 Z " /><path fill="rgb(125,43,37)" stroke="rgb(125,43,37)" stroke-width="1" opacity="0.8784313725490196" d="M 292.5 224 L 295 225.5 L 293.5 226 L 292.5 224 Z " /><path fill="rgb(125,43,37)" stroke="rgb(125,43,37)" stroke-width="1" opacity="0.8784313725490196" d="M 303.5 224 L 304.5 226 L 303.5 224 Z " /><path fill="rgb(125,43,37)" stroke="rgb(125,43,37)" stroke-width="1" opacity="0.8784313725490196" d="M 232.5 226 L 231.5 228 L 232.5 226 Z " /><path fill="rgb(125,43,37)" stroke="rgb(125,43,37)" stroke-width="1" opacity="0.8784313725490196" d="M 296.5 226 L 303 230.5 L 301.5 230 Q 296.9 228.8 296.5 226 Z " /><path fill="rgb(125,43,37)" stroke="rgb(125,43,37)" stroke-width="1" opacity="0.8784313725490196" d="M 180.5 227 L 184.5 232 L 180.5 227 Z " /><path fill="rgb(125,43,37)" stroke="rgb(125,43,37)" stroke-width="1" opacity="0.8784313725490196" d="M 236.5 227 L 235.5 229 L 236.5 227 Z " /><path fill="rgb(125,43,37)" stroke="rgb(125,43,37)" stroke-width="1" opacity="0.8784313725490196" d="M 261 227 Q 264.7 225.8 263 231 L 260.5 232 L 260 230.5 L 261 227 Z " /><path fill="rgb(125,43,37)" stroke="rgb(125,43,37)" stroke-width="1" opacity="0.8784313725490196" d="M 229.5 228 L 228.5 230 L 229.5 228 Z " /><path fill="rgb(125,43,37)" stroke="rgb(125,43,37)" stroke-width="1" opacity="0.8784313725490196" d="M 266.5 228 L 267 230.5 L 266 230.5 L 266.5 228 Z " /><path fill="rgb(125,43,37)" stroke="rgb(125,43,37)" stroke-width="1" opacity="0.8784313725490196" d="M 358.5 228 L 357.5 230 L 356 229.5 L 358.5 228 Z " /><path fill="rgb(125,43,37)" stroke="rgb(125,43,37)" stroke-width="1" opacity="0.8784313725490196" d="M 272.5 229 L 273 231.5 L 272 231.5 L 272.5 229 Z " /><path fill="rgb(125,43,37)" stroke="rgb(125,43,37)" stroke-width="1" opacity="0.8784313725490196" d="M 276 229 L 278 229.5 L 276 230.5 L 276 229 Z " /><path fill="rgb(125,43,37)" stroke="rgb(125,43,37)" stroke-width="1" opacity="0.8784313725490196" d="M 310.5 229 L 311.5 231 L 310.5 229 Z " /><path fill="rgb(125,43,37)" stroke="rgb(125,43,37)" stroke-width="1" opacity="0.8784313725490196" d="M 316.5 229 L 318 231.5 L 317 231.5 L 316.5 229 Z " /><path fill="rgb(125,43,37)" stroke="rgb(125,43,37)" stroke-width="1" opacity="0.8784313725490196" d="M 226.5 230 L 225.5 232 L 226.5 230 Z " /><path fill="rgb(125,43,37)" stroke="rgb(125,43,37)" stroke-width="1" opacity="0.8784313725490196" d="M 234.5 230 L 233.5 232 L 234.5 230 Z " /><path fill="rgb(125,43,37)" stroke="rgb(125,43,37)" stroke-width="1" opacity="0.8784313725490196" d="M 279.5 230 L 279 231.5 L 278.5 233 L 278 231.5 L 279.5 230 Z " /><path fill="rgb(125,43,37)" stroke="rgb(125,43,37)" stroke-width="1" opacity="0.8784313725490196" d="M 353.5 230 L 355 230.5 L 351.5 232 L 351.5 231 L 353.5 230 Z " /><path fill="rgb(125,43,37)" stroke="rgb(125,43,37)" stroke-width="1" opacity="0.8784313725490196" d="M 179.5 231 L 181.5 234 L 179.5 231 Z " /><path fill="rgb(125,43,37)" stroke="rgb(125,43,37)" stroke-width="1" opacity="0.8784313725490196" d="M 304.5 231 L 308 233.5 L 305.5 232 L 304.5 231 Z " /><path fill="rgb(125,43,37)" stroke="rgb(125,43,37)" stroke-width="1" opacity="0.8784313725490196" d="M 362.5 231 L 363 233.5 L 362 233.5 L 362.5 231 Z " /><path fill="rgb(125,43,37)" stroke="rgb(125,43,37)" stroke-width="1" opacity="0.8784313725490196" d="M 223.5 232 L 222.5 234 L 216.5 236 L 216.5 235 L 223.5 232 Z " /><path fill="rgb(125,43,37)" stroke="rgb(125,43,37)" stroke-width="1" opacity="0.8784313725490196" d="M 253.5 232 L 249.5 237 L 253.5 232 Z " /><path fill="rgb(125,43,37)" stroke="rgb(125,43,37)" stroke-width="1" opacity="0.8784313725490196" d="M 281.5 232 L 281 233.5 L 279.5 236 L 280 234.5 L 281.5 232 Z " /><path fill="rgb(125,43,37)" stroke="rgb(125,43,37)" stroke-width="1" opacity="0.8784313725490196" d="M 349.5 232 L 350 234 L 348 233.5 L 349.5 232 Z " /><path fill="rgb(125,43,37)" stroke="rgb(125,43,37)" stroke-width="1" opacity="0.8784313725490196" d="M 358.5 232 L 359 233.5 L 355.5 236 L 355.5 235 L 357 234.5 L 355 233.5 L 358.5 232 Z " /><path fill="rgb(125,43,37)" stroke="rgb(125,43,37)" stroke-width="1" opacity="0.8784313725490196" d="M 232.5 233 L 231.5 235 L 232.5 233 Z " /><path fill="rgb(125,43,37)" stroke="rgb(125,43,37)" stroke-width="1" opacity="0.8784313725490196" d="M 277.5 234 L 276.5 236 L 277.5 234 Z " /><path fill="rgb(125,43,37)" stroke="rgb(125,43,37)" stroke-width="1" opacity="0.8784313725490196" d="M 309.5 234 L 310.5 236 L 309.5 234 Z " /><path fill="rgb(125,43,37)" stroke="rgb(125,43,37)" stroke-width="1" opacity="0.8784313725490196" d="M 198.5 237 L 210 237.5 L 198.5 238 L 198.5 237 Z " /><path fill="rgb(125,43,37)" stroke="rgb(125,43,37)" stroke-width="1" opacity="0.8784313725490196" d="M 228.5 237 L 225.5 241 L 228.5 237 Z " /><path fill="rgb(125,43,37)" stroke="rgb(125,43,37)" stroke-width="1" opacity="0.8784313725490196" d="M 259.5 237 L 258.5 239 L 259.5 237 Z " /><path fill="rgb(125,43,37)" stroke="rgb(125,43,37)" stroke-width="1" opacity="0.8784313725490196" d="M 269.5 237 L 268.5 239 L 269.5 237 Z " /><path fill="rgb(125,43,37)" stroke="rgb(125,43,37)" stroke-width="1" opacity="0.8784313725490196" d="M 278.5 237 L 276.5 240 L 278.5 237 Z " /><path fill="rgb(125,43,37)" stroke="rgb(125,43,37)" stroke-width="1" opacity="0.8784313725490196" d="M 313.5 237 L 312.5 239 L 313.5 237 Z " /><path fill="rgb(125,43,37)" stroke="rgb(125,43,37)" stroke-width="1" opacity="0.8784313725490196" d="M 347.5 237 L 346.5 239 L 347.5 237 Z " /><path fill="rgb(125,43,37)" stroke="rgb(125,43,37)" stroke-width="1" opacity="0.8784313725490196" d="M 217.5 238 Q 220.8 236.9 220 239.5 L 218.5 239 L 214 241.5 L 213.5 243 L 213 241.5 L 217.5 238 Z " /><path fill="rgb(125,43,37)" stroke="rgb(125,43,37)" stroke-width="1" opacity="0.8784313725490196" d="M 273.5 239 L 269 244.5 Q 271.3 245.8 268.5 247 L 268 244.5 L 273.5 239 Z " /><path fill="rgb(125,43,37)" stroke="rgb(125,43,37)" stroke-width="1" opacity="0.8784313725490196" d="M 281.5 239 L 274.5 247 L 281.5 239 Z " /><path fill="rgb(125,43,37)" stroke="rgb(125,43,37)" stroke-width="1" opacity="0.8784313725490196" d="M 338.5 239 L 337.5 241 L 338.5 239 Z " /><path fill="rgb(125,43,37)" stroke="rgb(125,43,37)" stroke-width="1" opacity="0.8784313725490196" d="M 344.5 239 L 343.5 241 L 344.5 239 Z " /><path fill="rgb(125,43,37)" stroke="rgb(125,43,37)" stroke-width="1" opacity="0.8784313725490196" d="M 356.5 239 L 357 246.5 L 356 246.5 L 356.5 239 Z " /><path fill="rgb(125,43,37)" stroke="rgb(125,43,37)" stroke-width="1" opacity="0.8784313725490196" d="M 360.5 239 L 361 243.5 L 360 243.5 L 360.5 239 Z " /><path fill="rgb(125,43,37)" stroke="rgb(125,43,37)" stroke-width="1" opacity="0.8784313725490196" d="M 194.5 240 Q 196.8 239.3 196 241.5 L 194.5 240 Z " /><path fill="rgb(125,43,37)" stroke="rgb(125,43,37)" stroke-width="1" opacity="0.8784313725490196" d="M 223.5 241 L 222.5 243 L 221 242.5 L 223.5 241 Z " /><path fill="rgb(125,43,37)" stroke="rgb(125,43,37)" stroke-width="1" opacity="0.8784313725490196" d="M 341.5 241 L 338.5 245 L 341.5 241 Z " /><path fill="rgb(125,43,37)" stroke="rgb(125,43,37)" stroke-width="1" opacity="0.8784313725490196" d="M 243.5 242 L 241.5 245 L 243.5 242 Z " /><path fill="rgb(125,43,37)" stroke="rgb(125,43,37)" stroke-width="1" opacity="0.8784313725490196" d="M 264.5 242 L 263.5 244 L 264.5 242 Z " /><path fill="rgb(125,43,37)" stroke="rgb(125,43,37)" stroke-width="1" opacity="0.8784313725490196" d="M 335.5 242 L 337 242.5 L 334.5 244 L 335.5 242 Z " /><path fill="rgb(125,43,37)" stroke="rgb(125,43,37)" stroke-width="1" opacity="0.8784313725490196" d="M 238.5 243 Q 240.8 242.3 240 244.5 L 238.5 243 Z " /><path fill="rgb(125,43,37)" stroke="rgb(125,43,37)" stroke-width="1" opacity="0.8784313725490196" d="M 272.5 243 L 271.5 245 L 272.5 243 Z " /><path fill="rgb(125,43,37)" stroke="rgb(125,43,37)" stroke-width="1" opacity="0.8784313725490196" d="M 347.5 243 L 351 245.5 L 349.5 245 Q 344.8 244.3 344 247.5 Q 344.8 250.1 341.5 249 L 337 246.5 L 339.5 246 L 342.5 248 L 345 244 L 347.5 243 Z " /><path fill="rgb(125,43,37)" stroke="rgb(125,43,37)" stroke-width="1" opacity="0.8784313725490196" d="M 205.5 244 L 208 244.5 L 205.5 245 L 205.5 244 Z " /><path fill="rgb(125,43,37)" stroke="rgb(125,43,37)" stroke-width="1" opacity="0.8784313725490196" d="M 303.5 244 L 302.5 246 L 303.5 244 Z " /><path fill="rgb(125,43,37)" stroke="rgb(125,43,37)" stroke-width="1" opacity="0.8784313725490196" d="M 224.5 245 L 227 245.5 L 224.5 246 L 224.5 245 Z " /><path fill="rgb(125,43,37)" stroke="rgb(125,43,37)" stroke-width="1" opacity="0.8784313725490196" d="M 266.5 245 L 267 247.5 L 264.5 250 L 263 249.5 L 266 247.5 Q 263.8 246.2 266.5 245 Z " /><path fill="rgb(125,43,37)" stroke="rgb(125,43,37)" stroke-width="1" opacity="0.8784313725490196" d="M 253.5 246 L 254 251.5 L 253 251.5 L 253.5 246 Z " /><path fill="rgb(125,43,37)" stroke="rgb(125,43,37)" stroke-width="1" opacity="0.8784313725490196" d="M 305.5 246 L 304.5 248 L 305.5 246 Z " /><path fill="rgb(125,43,37)" stroke="rgb(125,43,37)" stroke-width="1" opacity="0.8784313725490196" d="M 207.5 247 L 218 247.5 L 207.5 248 L 207.5 247 Z " /><path fill="rgb(125,43,37)" stroke="rgb(125,43,37)" stroke-width="1" opacity="0.8784313725490196" d="M 228.5 247 L 237 248.5 L 229.5 249 L 228.5 247 Z " /><path fill="rgb(125,43,37)" stroke="rgb(125,43,37)" stroke-width="1" opacity="0.8784313725490196" d="M 351.5 247 L 353 250 L 357 248 L 356 250.5 L 357 254 L 354 252.5 L 351 248.5 L 351.5 247 Z " /><path fill="rgb(125,43,37)" stroke="rgb(125,43,37)" stroke-width="1" opacity="0.8784313725490196" d="M 224.5 248 L 226 248.5 L 220.5 253 L 224.5 248 Z " /><path fill="rgb(125,43,37)" stroke="rgb(125,43,37)" stroke-width="1" opacity="0.8784313725490196" d="M 271.5 248 L 270.5 250 L 271.5 248 Z " /><path fill="rgb(125,43,37)" stroke="rgb(125,43,37)" stroke-width="1" opacity="0.8784313725490196" d="M 347.5 248 L 348.5 250 L 347 249.5 L 346.5 251 L 346 249.5 L 347.5 248 Z " /><path fill="rgb(125,43,37)" stroke="rgb(125,43,37)" stroke-width="1" opacity="0.8784313725490196" d="M 259.5 249 L 262 250.5 L 260.5 251 L 259.5 249 Z " /><path fill="rgb(125,43,37)" stroke="rgb(125,43,37)" stroke-width="1" opacity="0.8784313725490196" d="M 281.5 249 L 280.5 251 L 279 250.5 L 281.5 249 Z " /><path fill="rgb(125,43,37)" stroke="rgb(125,43,37)" stroke-width="1" opacity="0.8784313725490196" d="M 266.5 251 L 267 254 L 264 253.5 L 266.5 251 Z " /><path fill="rgb(125,43,37)" stroke="rgb(125,43,37)" stroke-width="1" opacity="0.8784313725490196" d="M 273.5 251 L 276 251.5 L 273.5 252 L 273.5 251 Z " /><path fill="rgb(125,43,37)" stroke="rgb(125,43,37)" stroke-width="1" opacity="0.8784313725490196" d="M 254.5 253 L 260 255.5 L 258.5 255 Q 252.2 256.7 254.5 253 Z " /><path fill="rgb(125,43,37)" stroke="rgb(125,43,37)" stroke-width="1" opacity="0.8784313725490196" d="M 276.5 254 Q 279.5 253.1 278 257.5 L 277 257.5 L 276.5 254 Z " /><path fill="rgb(125,43,37)" stroke="rgb(125,43,37)" stroke-width="1" opacity="0.8784313725490196" d="M 218.5 255 L 220 257.5 L 219 257.5 L 218.5 255 Z " /><path fill="rgb(125,43,37)" stroke="rgb(125,43,37)" stroke-width="1" opacity="0.8784313725490196" d="M 249.5 256 Q 254.5 255.5 255 259.5 L 251.5 257 Q 248.5 257.5 249.5 256 Z " /><path fill="rgb(125,43,37)" stroke="rgb(125,43,37)" stroke-width="1" opacity="0.8784313725490196" d="M 261.5 256 L 266 258.5 L 264.5 259 L 261.5 256 Z " /><path fill="rgb(125,43,37)" stroke="rgb(125,43,37)" stroke-width="1" opacity="0.8784313725490196" d="M 270.5 256 L 273 256.5 L 270.5 257 L 270.5 256 Z " /><path fill="rgb(125,43,37)" stroke="rgb(125,43,37)" stroke-width="1" opacity="0.8784313725490196" d="M 350.5 256 L 351 265.5 L 350 265.5 L 350.5 256 Z " /><path fill="rgb(125,43,37)" stroke="rgb(125,43,37)" stroke-width="1" opacity="0.8784313725490196" d="M 189.5 257 L 188.5 259 L 189.5 257 Z " /><path fill="rgb(125,43,37)" stroke="rgb(125,43,37)" stroke-width="1" opacity="0.8784313725490196" d="M 194.5 257 L 197.5 261 L 194 259 L 194.5 257 Z " /><path fill="rgb(125,43,37)" stroke="rgb(125,43,37)" stroke-width="1" opacity="0.8784313725490196" d="M 224.5 257 L 228 257.5 L 223.5 259 L 224.5 257 Z " /><path fill="rgb(125,43,37)" stroke="rgb(125,43,37)" stroke-width="1" opacity="0.8784313725490196" d="M 230.5 257 L 234 258.5 L 232.5 258 Q 229.5 258.5 230.5 257 Z " /><path fill="rgb(125,43,37)" stroke="rgb(125,43,37)" stroke-width="1" opacity="0.8784313725490196" d="M 282.5 257 L 286 257.5 L 282.5 258 L 282.5 257 Z " /><path fill="rgb(125,43,37)" stroke="rgb(125,43,37)" stroke-width="1" opacity="0.8784313725490196" d="M 235.5 258 L 236 268.5 L 232 271.5 L 235 268.5 L 235 266.5 L 235.5 258 Z " /><path fill="rgb(125,43,37)" stroke="rgb(125,43,37)" stroke-width="1" opacity="0.8784313725490196" d="M 336.5 258 L 338 260.5 L 337 260.5 L 336.5 258 Z " /><path fill="rgb(125,43,37)" stroke="rgb(125,43,37)" stroke-width="1" opacity="0.8784313725490196" d="M 237.5 259 L 238 261.5 L 237 261.5 L 237.5 259 Z " /><path fill="rgb(125,43,37)" stroke="rgb(125,43,37)" stroke-width="1" opacity="0.8784313725490196" d="M 268.5 259 L 271 260.5 L 269.5 261 L 268.5 259 Z " /><path fill="rgb(125,43,37)" stroke="rgb(125,43,37)" stroke-width="1" opacity="0.8784313725490196" d="M 191.5 260 L 191 261.5 L 190.5 264 L 190 261.5 L 191.5 260 Z " /><path fill="rgb(125,43,37)" stroke="rgb(125,43,37)" stroke-width="1" opacity="0.8784313725490196" d="M 251.5 260 L 252.5 262 L 251.5 260 Z " /><path fill="rgb(125,43,37)" stroke="rgb(125,43,37)" stroke-width="1" opacity="0.8784313725490196" d="M 193.5 261 L 199.5 268 L 193.5 261 Z " /><path fill="rgb(125,43,37)" stroke="rgb(125,43,37)" stroke-width="1" opacity="0.8784313725490196" d="M 241.5 261 L 240 263.5 L 238.5 266 L 237 263.5 L 238 263.5 L 238.5 265 L 241.5 261 Z " /><path fill="rgb(125,43,37)" stroke="rgb(125,43,37)" stroke-width="1" opacity="0.8784313725490196" d="M 272.5 261 L 282 266.5 L 280.5 266 L 273.5 263 L 272.5 261 Z " /><path fill="rgb(125,43,37)" stroke="rgb(125,43,37)" stroke-width="1" opacity="0.8784313725490196" d="M 280.5 261 L 286 261.5 Q 285.3 263.8 281.5 263 L 280.5 261 Z " /><path fill="rgb(125,43,37)" stroke="rgb(125,43,37)" stroke-width="1" opacity="0.8784313725490196" d="M 243.5 263 L 241.5 266 L 243.5 263 Z " /><path fill="rgb(125,43,37)" stroke="rgb(125,43,37)" stroke-width="1" opacity="0.8784313725490196" d="M 253.5 263 L 254.5 265 L 253.5 263 Z " /><path fill="rgb(125,43,37)" stroke="rgb(125,43,37)" stroke-width="1" opacity="0.8784313725490196" d="M 257.5 264 L 258.5 266 L 257.5 264 Z " /><path fill="rgb(125,43,37)" stroke="rgb(125,43,37)" stroke-width="1" opacity="0.8784313725490196" d="M 323.5 264 L 326 264.5 L 323.5 265 L 323.5 264 Z " /><path fill="rgb(125,43,37)" stroke="rgb(125,43,37)" stroke-width="1" opacity="0.8784313725490196" d="M 209.5 265 Q 212.8 263.9 212 266.5 L 210.5 271 L 210 267 L 201.5 269 L 201.5 268 Q 207.6 268.6 209.5 265 Z " /><path fill="rgb(125,43,37)" stroke="rgb(125,43,37)" stroke-width="1" opacity="0.8784313725490196" d="M 216.5 265 L 215.5 267 L 216.5 265 Z " /><path fill="rgb(125,43,37)" stroke="rgb(125,43,37)" stroke-width="1" opacity="0.8784313725490196" d="M 287.5 265 L 294 265.5 L 287.5 266 L 287.5 265 Z " /><path fill="rgb(125,43,37)" stroke="rgb(125,43,37)" stroke-width="1" opacity="0.8784313725490196" d="M 330.5 265 L 331 270 Q 328.3 271.1 329 268.5 L 328.5 267 Q 331 267.7 330.5 265 Z " /><path fill="rgb(125,43,37)" stroke="rgb(125,43,37)" stroke-width="1" opacity="0.8784313725490196" d="M 333 265 Q 336.3 263.9 335 268 Q 331.7 269.1 333 265 Z " /><path fill="rgb(125,43,37)" stroke="rgb(125,43,37)" stroke-width="1" opacity="0.8784313725490196" d="M 190.5 266 L 189.5 268 L 190.5 266 Z " /><path fill="rgb(125,43,37)" stroke="rgb(125,43,37)" stroke-width="1" opacity="0.8784313725490196" d="M 218.5 266 Q 220.8 265.3 220 267.5 L 218.5 266 Z " /><path fill="rgb(125,43,37)" stroke="rgb(125,43,37)" stroke-width="1" opacity="0.8784313725490196" d="M 255.5 266 L 257 268.5 L 256 268.5 L 255.5 266 Z " /><path fill="rgb(125,43,37)" stroke="rgb(125,43,37)" stroke-width="1" opacity="0.8784313725490196" d="M 300.5 266 Q 302.8 265.3 302 267.5 L 300.5 266 Z " /><path fill="rgb(125,43,37)" stroke="rgb(125,43,37)" stroke-width="1" opacity="0.8784313725490196" d="M 322.5 266 L 323 269.5 L 322 269.5 L 322.5 266 Z " /><path fill="rgb(125,43,37)" stroke="rgb(125,43,37)" stroke-width="1" opacity="0.8784313725490196" d="M 339.5 266 L 332.5 274 L 339.5 266 Z " /><path fill="rgb(125,43,37)" stroke="rgb(125,43,37)" stroke-width="1" opacity="0.8784313725490196" d="M 213.5 267 L 214 270.5 L 213 270.5 L 213.5 267 Z " /><path fill="rgb(125,43,37)" stroke="rgb(125,43,37)" stroke-width="1" opacity="0.8784313725490196" d="M 259.5 267 Q 261.8 268.8 261 273.5 L 256 277.5 Q 261 276.5 260 269.5 L 259.5 267 Z " /><path fill="rgb(125,43,37)" stroke="rgb(125,43,37)" stroke-width="1" opacity="0.8784313725490196" d="M 283.5 267 L 290 272.5 L 286.5 270 L 283.5 267 Z " /><path fill="rgb(125,43,37)" stroke="rgb(125,43,37)" stroke-width="1" opacity="0.8784313725490196" d="M 292 268 Q 296.6 266.8 298 269.5 Q 297.3 271.8 293.5 271 L 292 268 Z " /><path fill="rgb(125,43,37)" stroke="rgb(125,43,37)" stroke-width="1" opacity="0.8784313725490196" d="M 325 269 Q 328.3 267.7 327 272.5 L 325 273.5 L 325 269 Z " /><path fill="rgb(125,43,37)" stroke="rgb(125,43,37)" stroke-width="1" opacity="0.8784313725490196" d="M 352.5 269 L 353 271.5 L 352 271.5 L 352.5 269 Z " /><path fill="rgb(125,43,37)" stroke="rgb(125,43,37)" stroke-width="1" opacity="0.8784313725490196" d="M 304.5 270 L 306 270.5 L 303.5 272 L 304.5 270 Z " /><path fill="rgb(125,43,37)" stroke="rgb(125,43,37)" stroke-width="1" opacity="0.8784313725490196" d="M 184.5 271 L 186.5 274 L 184 273 L 184.5 271 Z " /><path fill="rgb(125,43,37)" stroke="rgb(125,43,37)" stroke-width="1" opacity="0.8784313725490196" d="M 235.5 271 L 232.5 275 L 228.5 276 L 228.5 275 Q 233.7 274.7 235.5 271 Z " /><path fill="rgb(125,43,37)" stroke="rgb(125,43,37)" stroke-width="1" opacity="0.8784313725490196" d="M 256.5 271 L 257 272.5 L 250.5 278 L 254.5 273 Q 257 273.7 256.5 271 Z " /><path fill="rgb(125,43,37)" stroke="rgb(125,43,37)" stroke-width="1" opacity="0.8784313725490196" d="M 191.5 272 L 192.5 274 L 191.5 272 Z " /><path fill="rgb(125,43,37)" stroke="rgb(125,43,37)" stroke-width="1" opacity="0.8784313725490196" d="M 311.5 272 L 312 273.5 L 310 274.5 L 311.5 272 Z " /><path fill="rgb(125,43,37)" stroke="rgb(125,43,37)" stroke-width="1" opacity="0.8784313725490196" d="M 315.5 272 L 317 272 L 317 276 L 313 276 L 313 274.5 L 315.5 272 Z " /><path fill="rgb(125,43,37)" stroke="rgb(125,43,37)" stroke-width="1" opacity="0.8784313725490196" d="M 291.5 273 L 294 276.5 L 292 275.5 L 291.5 273 Z " /><path fill="rgb(125,43,37)" stroke="rgb(125,43,37)" stroke-width="1" opacity="0.8784313725490196" d="M 194.5 274 L 196.5 277 L 194.5 274 Z " /><path fill="rgb(125,43,37)" stroke="rgb(125,43,37)" stroke-width="1" opacity="0.8784313725490196" d="M 189.5 275 L 190.5 277 L 189.5 275 Z " /><path fill="rgb(125,43,37)" stroke="rgb(125,43,37)" stroke-width="1" opacity="0.8784313725490196" d="M 275.5 275 L 278 275.5 L 275.5 276 L 275.5 275 Z " /><path fill="rgb(125,43,37)" stroke="rgb(125,43,37)" stroke-width="1" opacity="0.8784313725490196" d="M 282.5 275 L 285 275.5 L 282.5 276 L 282.5 275 Z " /><path fill="rgb(125,43,37)" stroke="rgb(125,43,37)" stroke-width="1" opacity="0.8784313725490196" d="M 296.5 276 L 299 276.5 L 296.5 277 L 296.5 276 Z " /><path fill="rgb(125,43,37)" stroke="rgb(125,43,37)" stroke-width="1" opacity="0.8784313725490196" d="M 347.5 276 L 348 277.5 Q 344.8 286.3 337.5 291 L 337 289 L 344 283.5 L 347.5 276 Z " /><path fill="rgb(125,43,37)" stroke="rgb(125,43,37)" stroke-width="1" opacity="0.8784313725490196" d="M 208.5 278 Q 210.8 277.3 210 279.5 L 207.5 280 L 203 279.5 L 208.5 278 Z " /><path fill="rgb(125,43,37)" stroke="rgb(125,43,37)" stroke-width="1" opacity="0.8784313725490196" d="M 213.5 278 L 214 281.5 L 213 281.5 L 213.5 278 Z " /><path fill="rgb(125,43,37)" stroke="rgb(125,43,37)" stroke-width="1" opacity="0.8784313725490196" d="M 248.5 278 L 247.5 280 L 246 279.5 L 248.5 278 Z " /><path fill="rgb(125,43,37)" stroke="rgb(125,43,37)" stroke-width="1" opacity="0.8784313725490196" d="M 254.5 278 L 253.5 280 L 254.5 278 Z " /><path fill="rgb(125,43,37)" stroke="rgb(125,43,37)" stroke-width="1" opacity="0.8784313725490196" d="M 267.5 278 L 266.5 280 L 267.5 278 Z " /><path fill="rgb(125,43,37)" stroke="rgb(125,43,37)" stroke-width="1" opacity="0.8784313725490196" d="M 294.5 278 L 295.5 280 Q 292.7 280.7 294.5 278 Z " /><path fill="rgb(125,43,37)" stroke="rgb(125,43,37)" stroke-width="1" opacity="0.8784313725490196" d="M 303.5 278 L 307 278.5 L 303.5 279 L 303.5 278 Z " /><path fill="rgb(125,43,37)" stroke="rgb(125,43,37)" stroke-width="1" opacity="0.8784313725490196" d="M 318.5 278 L 322 278.5 L 318.5 279 L 318.5 278 Z " /><path fill="rgb(125,43,37)" stroke="rgb(125,43,37)" stroke-width="1" opacity="0.8784313725490196" d="M 311.5 279 L 316 279.5 L 311.5 280 L 311.5 279 Z " /><path fill="rgb(125,43,37)" stroke="rgb(125,43,37)" stroke-width="1" opacity="0.8784313725490196" d="M 218.5 280 L 219 282.5 L 218 282.5 L 218.5 280 Z " /><path fill="rgb(125,43,37)" stroke="rgb(125,43,37)" stroke-width="1" opacity="0.8784313725490196" d="M 251.5 280 L 250.5 282 L 249 282.5 L 254 289.5 L 253 289.5 L 251 286.5 L 248 282.5 L 251.5 280 Z " /><path fill="rgb(125,43,37)" stroke="rgb(125,43,37)" stroke-width="1" opacity="0.8784313725490196" d="M 264.5 280 L 262.5 283 Q 260.3 282.3 261 284.5 L 256.5 291 L 255 290.5 L 257 290 L 262.5 281 L 264.5 280 Z " /><path fill="rgb(125,43,37)" stroke="rgb(125,43,37)" stroke-width="1" opacity="0.8784313725490196" d="M 290.5 280 L 298 286.5 L 297.5 288 L 292.5 282 L 290.5 280 Z " /><path fill="rgb(125,43,37)" stroke="rgb(125,43,37)" stroke-width="1" opacity="0.8784313725490196" d="M 221.5 281 L 227 282.5 L 222.5 283 L 221.5 281 Z " /><path fill="rgb(125,43,37)" stroke="rgb(125,43,37)" stroke-width="1" opacity="0.8784313725490196" d="M 241.5 281 L 243 281.5 L 237.5 286 L 241.5 281 Z " /><path fill="rgb(125,43,37)" stroke="rgb(125,43,37)" stroke-width="1" opacity="0.8784313725490196" d="M 201.5 282 L 200.5 284 L 198 283.5 L 201.5 282 Z " /><path fill="rgb(125,43,37)" stroke="rgb(125,43,37)" stroke-width="1" opacity="0.8784313725490196" d="M 266.5 282 L 265.5 284 L 266.5 282 Z " /><path fill="rgb(125,43,37)" stroke="rgb(125,43,37)" stroke-width="1" opacity="0.8784313725490196" d="M 228.5 283 L 230.5 286 L 228.5 283 Z " /><path fill="rgb(125,43,37)" stroke="rgb(125,43,37)" stroke-width="1" opacity="0.8784313725490196" d="M 245.5 283 L 247.5 286 L 245.5 283 Z " /><path fill="rgb(125,43,37)" stroke="rgb(125,43,37)" stroke-width="1" opacity="0.8784313725490196" d="M 222.5 285 L 226 285.5 L 222.5 286 L 222.5 285 Z " /><path fill="rgb(125,43,37)" stroke="rgb(125,43,37)" stroke-width="1" opacity="0.8784313725490196" d="M 263.5 285 L 261.5 288 L 263.5 285 Z " /><path fill="rgb(125,43,37)" stroke="rgb(125,43,37)" stroke-width="1" opacity="0.8784313725490196" d="M 202.5 286 L 201.5 288 L 198 287.5 L 202.5 286 Z " /><path fill="rgb(125,43,37)" stroke="rgb(125,43,37)" stroke-width="1" opacity="0.8784313725490196" d="M 215.5 287 L 218 288.5 L 216.5 289 L 215.5 287 Z " /><path fill="rgb(125,43,37)" stroke="rgb(125,43,37)" stroke-width="1" opacity="0.8784313725490196" d="M 235 287 L 237 287.5 L 233 290.5 L 235 287 Z " /><path fill="rgb(125,43,37)" stroke="rgb(125,43,37)" stroke-width="1" opacity="0.8784313725490196" d="M 228.5 288 L 229 290.5 L 228 290.5 L 228.5 288 Z " /><path fill="rgb(125,43,37)" stroke="rgb(125,43,37)" stroke-width="1" opacity="0.8784313725490196" d="M 249.5 288 L 252.5 292 L 249.5 288 Z " /><path fill="rgb(125,43,37)" stroke="rgb(125,43,37)" stroke-width="1" opacity="0.8784313725490196" d="M 346.5 288 L 345 290.5 L 343.5 293 L 344 291.5 L 346.5 288 Z " /><path fill="rgb(125,43,37)" stroke="rgb(125,43,37)" stroke-width="1" opacity="0.8784313725490196" d="M 242.5 289 L 241.5 291 L 242.5 289 Z " /><path fill="rgb(125,43,37)" stroke="rgb(125,43,37)" stroke-width="1" opacity="0.8784313725490196" d="M 223 290 L 227 290.5 L 223 292 L 223 290 Z " /><path fill="rgb(125,43,37)" stroke="rgb(125,43,37)" stroke-width="1" opacity="0.8784313725490196" d="M 238.5 290 L 240 290.5 L 237.5 292 L 238.5 290 Z " /><path fill="rgb(125,43,37)" stroke="rgb(125,43,37)" stroke-width="1" opacity="0.8784313725490196" d="M 335.5 291 L 334.5 293 L 326.5 297 L 327.5 295 L 335.5 291 Z " /><path fill="rgb(125,43,37)" stroke="rgb(125,43,37)" stroke-width="1" opacity="0.8784313725490196" d="M 339.5 291 L 339 292.5 L 330.5 302 L 321.5 308 L 322.5 306 L 331 301 L 330 297.5 L 332 297.5 Q 331.3 295.3 333.5 296 L 339.5 291 Z " /><path fill="rgb(125,43,37)" stroke="rgb(125,43,37)" stroke-width="1" opacity="0.8784313725490196" d="M 229.5 292 L 230.5 294 L 229.5 292 Z " /><path fill="rgb(125,43,37)" stroke="rgb(125,43,37)" stroke-width="1" opacity="0.8784313725490196" d="M 254.5 292 L 255.5 294 L 254.5 292 Z " /><path fill="rgb(125,43,37)" stroke="rgb(125,43,37)" stroke-width="1" opacity="0.8784313725490196" d="M 219.5 295 L 221.5 298 L 219.5 295 Z " /><path fill="rgb(125,43,37)" stroke="rgb(125,43,37)" stroke-width="1" opacity="0.8784313725490196" d="M 254.5 296 L 255.5 298 L 252 297.5 L 254.5 296 Z " /><path fill="rgb(125,43,37)" stroke="rgb(125,43,37)" stroke-width="1" opacity="0.8784313725490196" d="M 258.5 296 L 259 299.5 L 258 299.5 L 258.5 296 Z " /><path fill="rgb(125,43,37)" stroke="rgb(125,43,37)" stroke-width="1" opacity="0.8784313725490196" d="M 340.5 296 L 339.5 298 L 340.5 296 Z " /><path fill="rgb(125,43,37)" stroke="rgb(125,43,37)" stroke-width="1" opacity="0.8784313725490196" d="M 214.5 298 L 216 300.5 L 214 299.5 L 214.5 298 Z " /><path fill="rgb(125,43,37)" stroke="rgb(125,43,37)" stroke-width="1" opacity="0.8784313725490196" d="M 218.5 298 L 220 301.5 L 219.5 303 Q 216.8 301.8 218.5 298 Z " /><path fill="rgb(125,43,37)" stroke="rgb(125,43,37)" stroke-width="1" opacity="0.8784313725490196" d="M 328.5 298 L 327.5 300 L 326 299.5 L 328.5 298 Z " /><path fill="rgb(125,43,37)" stroke="rgb(125,43,37)" stroke-width="1" opacity="0.8784313725490196" d="M 247.5 299 L 246.5 301 L 247.5 299 Z " /><path fill="rgb(125,43,37)" stroke="rgb(125,43,37)" stroke-width="1" opacity="0.8784313725490196" d="M 337.5 299 L 335.5 302 L 337.5 299 Z " /><path fill="rgb(125,43,37)" stroke="rgb(125,43,37)" stroke-width="1" opacity="0.8784313725490196" d="M 225.5 300 L 228 300.5 L 225.5 301 L 225.5 300 Z " /><path fill="rgb(125,43,37)" stroke="rgb(125,43,37)" stroke-width="1" opacity="0.8784313725490196" d="M 241.5 300 L 244 301.5 L 242.5 302 L 241.5 300 Z " /><path fill="rgb(125,43,37)" stroke="rgb(125,43,37)" stroke-width="1" opacity="0.8784313725490196" d="M 256.5 300 L 257 302.5 L 256 302.5 L 256.5 300 Z " /><path fill="rgb(125,43,37)" stroke="rgb(125,43,37)" stroke-width="1" opacity="0.8784313725490196" d="M 297.5 300 L 298 302.5 L 296 303.5 L 297.5 300 Z " /><path fill="rgb(125,43,37)" stroke="rgb(125,43,37)" stroke-width="1" opacity="0.8784313725490196" d="M 301.5 300 L 302.5 301 L 312 301.5 L 301 302 L 301.5 300 Z " /><path fill="rgb(125,43,37)" stroke="rgb(125,43,37)" stroke-width="1" opacity="0.8784313725490196" d="M 314.5 300 L 317 300.5 L 314.5 301 L 314.5 300 Z " /><path fill="rgb(125,43,37)" stroke="rgb(125,43,37)" stroke-width="1" opacity="0.8784313725490196" d="M 323.5 300 L 325 300.5 L 322.5 302 L 323.5 300 Z " /><path fill="rgb(125,43,37)" stroke="rgb(125,43,37)" stroke-width="1" opacity="0.8784313725490196" d="M 232.5 301 L 235 301.5 L 232.5 302 L 232.5 301 Z " /><path fill="rgb(125,43,37)" stroke="rgb(125,43,37)" stroke-width="1" opacity="0.8784313725490196" d="M 226.5 302 L 227.5 304 L 226.5 302 Z " /><path fill="rgb(125,43,37)" stroke="rgb(125,43,37)" stroke-width="1" opacity="0.8784313725490196" d="M 317.5 302 L 319 302.5 L 314.5 304 L 314.5 303 L 317.5 302 Z " /><path fill="rgb(125,43,37)" stroke="rgb(125,43,37)" stroke-width="1" opacity="0.8784313725490196" d="M 220.5 304 L 222 307 L 227 310.5 L 223.5 308 L 221 306.5 L 220.5 304 Z " /><path fill="rgb(125,43,37)" stroke="rgb(125,43,37)" stroke-width="1" opacity="0.8784313725490196" d="M 224.5 304 L 227.5 308 L 224.5 304 Z " /><path fill="rgb(125,43,37)" stroke="rgb(125,43,37)" stroke-width="1" opacity="0.8784313725490196" d="M 300.5 304 L 310 304.5 L 301.5 305 L 297 309.5 L 295.5 312 L 296 310.5 L 300.5 304 Z " /><path fill="rgb(125,43,37)" stroke="rgb(125,43,37)" stroke-width="1" opacity="0.8784313725490196" d="M 295.5 305 L 290.5 311 L 295.5 305 Z " /><path fill="rgb(125,43,37)" stroke="rgb(125,43,37)" stroke-width="1" opacity="0.8784313725490196" d="M 229.5 308 L 235 311.5 L 233.5 312 L 229.5 308 Z " /><path fill="rgb(125,43,37)" stroke="rgb(125,43,37)" stroke-width="1" opacity="0.8784313725490196" d="M 253.5 309 L 258 309.5 L 254.5 311 L 253.5 309 Z " /><path fill="rgb(125,43,37)" stroke="rgb(125,43,37)" stroke-width="1" opacity="0.8784313725490196" d="M 262.5 309 L 264.5 312 L 262.5 309 Z " /><path fill="rgb(125,43,37)" stroke="rgb(125,43,37)" stroke-width="1" opacity="0.8784313725490196" d="M 248.5 310 Q 251.1 309.3 250 312 L 246.5 313 L 248.5 310 Z " /><path fill="rgb(125,43,37)" stroke="rgb(125,43,37)" stroke-width="1" opacity="0.8784313725490196" d="M 228.5 311 L 231 312.5 L 229.5 312 L 228.5 311 Z " /><path fill="rgb(125,43,37)" stroke="rgb(125,43,37)" stroke-width="1" opacity="0.8784313725490196" d="M 241.5 311 L 245 311.5 L 241.5 312 L 241.5 311 Z " /><path fill="rgb(125,43,37)" stroke="rgb(125,43,37)" stroke-width="1" opacity="0.8784313725490196" d="M 310.5 311 L 313 311.5 L 307.5 313 L 307.5 312 L 310.5 311 Z " /><path fill="rgb(125,43,37)" stroke="rgb(125,43,37)" stroke-width="1" opacity="0.8784313725490196" d="M 236.5 312 L 242 314.5 L 240.5 315 Q 236.5 314.5 236.5 312 Z " /><path fill="rgb(125,43,37)" stroke="rgb(125,43,37)" stroke-width="1" opacity="0.8784313725490196" d="M 266.5 312 L 267.5 314 L 266.5 312 Z " /><path fill="rgb(125,43,37)" stroke="rgb(125,43,37)" stroke-width="1" opacity="0.8784313725490196" d="M 208.5 313 L 206.5 316 L 208.5 313 Z " /><path fill="rgb(125,43,37)" stroke="rgb(125,43,37)" stroke-width="1" opacity="0.8784313725490196" d="M 293.5 313 L 301 314.5 L 293 315 L 293.5 313 Z " /><path fill="rgb(125,43,37)" stroke="rgb(125,43,37)" stroke-width="1" opacity="0.8784313725490196" d="M 302.5 313 L 306 313.5 L 302.5 314 L 302.5 313 Z " /><path fill="rgb(125,43,37)" stroke="rgb(125,43,37)" stroke-width="1" opacity="0.8784313725490196" d="M 219.5 315 L 233 315.5 L 220 316.5 L 222 317.5 Q 216.9 317.9 215.5 322 L 212.5 322 L 212.5 321 Q 217.3 321.8 218 318.5 L 219.5 315 Z " /><path fill="rgb(125,43,37)" stroke="rgb(125,43,37)" stroke-width="1" opacity="0.8784313725490196" d="M 243.5 315 L 245 315 L 245 319 L 243 318.5 L 244 316.5 L 243.5 315 Z " /><path fill="rgb(125,43,37)" stroke="rgb(125,43,37)" stroke-width="1" opacity="0.8784313725490196" d="M 270.5 315 L 274 316.5 L 272.5 317 L 270.5 315 Z " /><path fill="rgb(125,43,37)" stroke="rgb(125,43,37)" stroke-width="1" opacity="0.8784313725490196" d="M 289.5 315 L 290 317.5 L 289 317.5 L 289.5 315 Z " /><path fill="rgb(125,43,37)" stroke="rgb(125,43,37)" stroke-width="1" opacity="0.8784313725490196" d="M 310.5 315 L 309.5 317 L 310.5 315 Z " /><path fill="rgb(125,43,37)" stroke="rgb(125,43,37)" stroke-width="1" opacity="0.8784313725490196" d="M 214.5 317 L 212.5 320 L 214.5 317 Z " /><path fill="rgb(125,43,37)" stroke="rgb(125,43,37)" stroke-width="1" opacity="0.8784313725490196" d="M 249.5 317 L 252 317.5 L 249.5 318 L 249.5 317 Z " /><path fill="rgb(125,43,37)" stroke="rgb(125,43,37)" stroke-width="1" opacity="0.8784313725490196" d="M 276.5 317 L 280 317.5 L 276.5 318 L 276.5 317 Z " /><path fill="rgb(125,43,37)" stroke="rgb(125,43,37)" stroke-width="1" opacity="0.8784313725490196" d="M 223.5 318 L 225 320.5 L 223.5 320 Q 219.3 319.3 218.5 322 L 220.5 319 L 223.5 318 Z " /><path fill="rgb(125,43,37)" stroke="rgb(125,43,37)" stroke-width="1" opacity="0.8784313725490196" d="M 207.5 319 L 210 319.5 L 207.5 320 L 207.5 319 Z " /><path fill="rgb(125,43,37)" stroke="rgb(125,43,37)" stroke-width="1" opacity="0.8784313725490196" d="M 237.5 319 L 242 319.5 L 237.5 320 L 237.5 319 Z " /><path fill="rgb(125,43,37)" stroke="rgb(125,43,37)" stroke-width="1" opacity="0.8784313725490196" d="M 248.5 319 L 245.5 323 L 243 322.5 L 248.5 319 Z " /><path fill="rgb(125,43,37)" stroke="rgb(125,43,37)" stroke-width="1" opacity="0.8784313725490196" d="M 263.5 319 L 271 319.5 Q 263.4 318.9 259.5 322 L 260.5 320 L 263.5 319 Z " /><path fill="rgb(125,43,37)" stroke="rgb(125,43,37)" stroke-width="1" opacity="0.8784313725490196" d="M 290.5 319 L 291 321.5 L 286.5 324 L 286.5 323 L 290 320.5 L 290.5 319 Z " /><path fill="rgb(125,43,37)" stroke="rgb(125,43,37)" stroke-width="1" opacity="0.8784313725490196" d="M 233.5 320 L 236 320.5 L 233.5 321 L 233.5 320 Z " /><path fill="rgb(125,43,37)" stroke="rgb(125,43,37)" stroke-width="1" opacity="0.8784313725490196" d="M 250.5 320 L 249.5 322 L 250.5 320 Z " /><path fill="rgb(125,43,37)" stroke="rgb(125,43,37)" stroke-width="1" opacity="0.8784313725490196" d="M 274.5 320 L 279 320.5 L 274.5 321 L 274.5 320 Z " /><path fill="rgb(125,43,37)" stroke="rgb(125,43,37)" stroke-width="1" opacity="0.8784313725490196" d="M 228.5 321 L 231 321.5 L 228.5 322 L 228.5 321 Z " /><path fill="rgb(125,43,37)" stroke="rgb(125,43,37)" stroke-width="1" opacity="0.8784313725490196" d="M 254.5 321 L 258 322.5 L 255.5 326 Q 251.8 326.8 251 324.5 L 252.5 325 Q 257.8 326.5 256 322 L 254.5 321 Z " /><path fill="rgb(125,43,37)" stroke="rgb(125,43,37)" stroke-width="1" opacity="0.8784313725490196" d="M 264.5 321 Q 267.1 320.3 266 323 L 270.5 323 L 272 325.5 L 271 325.5 Q 271.9 322.1 266.5 324 L 265 323.5 L 263.5 326 L 264 324.5 L 265 322.5 L 264.5 321 Z " /><path fill="rgb(125,43,37)" stroke="rgb(125,43,37)" stroke-width="1" opacity="0.8784313725490196" d="M 221.5 323 L 224 323.5 L 221.5 324 L 221.5 323 Z " /><path fill="rgb(125,43,37)" stroke="rgb(125,43,37)" stroke-width="1" opacity="0.8784313725490196" d="M 239.5 323 L 242 323.5 L 239.5 324 L 239.5 323 Z " /><path fill="rgb(125,43,37)" stroke="rgb(125,43,37)" stroke-width="1" opacity="0.8784313725490196" d="M 282.5 324 L 281.5 326 L 280 325.5 L 282.5 324 Z " /><path fill="rgb(125,43,37)" stroke="rgb(125,43,37)" stroke-width="1" opacity="0.8784313725490196" d="M 267.5 325 L 266.5 327 L 267.5 325 Z " /><path fill="rgb(125,43,37)" stroke="rgb(125,43,37)" stroke-width="1" opacity="0.8784313725490196" d="M 275.5 326 L 274.5 328 L 275.5 326 Z " /><path fill="rgb(125,43,37)" stroke="rgb(125,43,37)" stroke-width="1" opacity="0.8784313725490196" d="M 249.5 328 L 253.5 328 L 258 330.5 L 255.5 331 Q 254.5 328 249.5 329 L 249.5 328 Z " /><path fill="rgb(125,43,37)" stroke="rgb(125,43,37)" stroke-width="1" opacity="0.8784313725490196" d="M 264.5 328 L 270 329.5 L 265.5 330 L 264.5 328 Z " /><path fill="rgb(82,6,17)" stroke="rgb(82,6,17)" stroke-width="1" opacity="0.9725490196078431" d="M 275.5 156 L 283 161 L 283 166.5 L 278 176 Q 275.3 174.9 276 177.5 L 265 186.5 L 266.5 187 L 268.5 187 L 271 188.5 L 267 198 L 272 200.5 L 272 205.5 L 269 209.5 L 270 211.5 L 268 215.5 Q 271.7 218.6 272 224 L 266 226 Q 267.5 232.3 263.5 234 L 259 236.5 L 258 238.5 L 258 240.5 L 257 246 L 268 241 L 273 231.5 L 274 220.5 L 275 219.5 L 273 210.5 L 273 208.5 L 278.5 203 L 295.5 194 Q 297 196.5 298.5 193 L 307.5 191 L 309.5 191 L 322.5 191 L 323.5 192 L 325.5 192 L 334.5 193 L 336 194.5 Q 336.8 196.8 334.5 196 L 320 207.5 Q 314.9 213.4 315 224.5 L 316 229.5 L 321 237.5 L 321 240 Q 309 239.6 304 247.5 L 302.5 250 L 288.5 249 L 282.5 253 L 276 254.5 L 277 258 L 287.5 258 L 290 259 Q 290.6 263.6 287 265.5 L 293.5 266 L 295.5 266 Q 301 265 302 268.5 L 300 274 L 308 270 L 308 275.5 L 309.5 276 L 314.5 269 L 317.5 268 L 320 274 Q 323.3 275.3 322 270.5 L 323 265 Q 326.8 264 328 266.5 L 329 270 Q 332.7 271.4 331 265.5 L 330 263.5 L 332.5 260 L 337.5 264 L 338 259.5 L 337 256 L 340.5 257 L 342 252.5 L 332 247.5 L 335.5 243 Q 337.8 243.8 337 241.5 L 345.5 235 L 350 234 Q 348.8 231 352.5 232 L 359.5 228 L 363 228 L 362 235.5 L 360 239.5 L 360 257.5 L 358.5 259 L 353 257 L 353 268.5 L 350 280.5 L 347 287.5 L 339 299 L 335 301.5 L 333.5 304 Q 324.2 311.7 311.5 316 L 309.5 316 L 302.5 318 L 295.5 318 L 294 319.5 L 293 325 L 269.5 333 L 263.5 333 L 253.5 328 L 249 328 L 248 325.5 L 252.5 319 Q 255.8 320.1 255 317.5 L 253.5 318 L 249 317 L 245.5 322 L 223.5 327 L 216.5 327 L 208.5 323 L 204 323 Q 202.8 315.7 208.5 314 L 218.5 313 L 222 311.5 L 215 301.5 L 215 299.5 L 214 290.5 L 210.5 283 L 205.5 283 Q 204.5 288 197.5 287 L 195 284.5 Q 195.8 278.7 192.5 277 L 183 269.5 L 185.5 265 L 188 264.5 L 187 260.5 Q 188.4 256 194 257 Q 192.9 259.7 195.5 259 L 201.5 265 L 203.5 265 L 213 259.5 L 217 251.5 L 200.5 249 Q 193 246 189 239.5 Q 190.1 236.2 187.5 237 L 177 228.5 Q 173.7 223.8 175 214.5 L 176 212 Q 178.7 213.1 178 210.5 L 185.5 207 L 190.5 207 Q 191.8 209.3 193 206.5 Q 192.2 190.7 200.5 184 L 206 183 Q 204.9 180.3 207.5 181 Q 211.5 177.3 218 177 L 226.5 166 Q 228.8 166.8 228 164.5 L 234.5 161 Q 237.8 162.8 238 167.5 L 237.5 169 L 245.5 165 L 250.5 165 Q 254.8 166.9 253 174 Q 262.7 170.7 269 162.5 L 273.5 157 L 275.5 156 Z M 276 159 L 270 165 Q 269 169 272 170 L 269 167 Q 260 176 248 180 L 248 184 L 252 188 L 258 187 L 268 181 L 271 179 L 278 171 Q 281 168 280 163 L 276 159 Z M 232 165 L 231 166 Q 228 165 229 168 L 227 168 L 222 175 L 222 177 L 231 176 Q 235 173 235 167 L 232 165 Z M 247 168 L 239 172 L 235 177 Q 241 176 245 179 L 249 177 Q 251 176 249 175 L 250 170 L 247 168 Z M 220 179 Q 212 180 207 185 L 209 189 L 209 191 L 207 188 L 202 187 L 196 199 L 195 208 L 206 217 L 206 218 Q 201 212 192 210 L 182 211 L 178 216 Q 177 224 180 228 Q 186 236 199 238 L 210 238 L 218 236 L 232 228 L 235 223 Q 238 225 246 225 Q 244 227 238 226 L 231 236 Q 225 242 215 245 Q 202 246 196 240 L 194 241 Q 199 246 208 248 L 218 248 L 227 246 L 250 237 L 256 229 L 256 223 L 257 223 Q 259 231 255 234 Q 256 236 253 235 L 253 237 L 251 237 L 251 239 L 244 242 L 239 250 L 237 262 L 237 264 L 239 266 L 240 264 Q 242 259 244 263 L 241 267 Q 235 274 225 277 L 221 282 Q 222 284 228 283 L 231 287 Q 229 292 234 291 L 237 287 L 242 282 Q 252 280 257 273 L 257 268 L 250 258 L 252 257 L 259 267 L 260 274 L 248 283 L 251 287 Q 250 289 253 288 L 253 290 L 257 291 L 261 283 L 271 277 L 279 275 Q 289 275 295 280 L 296 280 L 293 275 L 281 265 L 254 253 L 255 239 L 262 219 Q 261 215 264 216 L 265 213 L 263 209 L 262 198 L 259 192 Q 257 188 251 190 L 246 183 L 239 179 L 220 179 Z M 261 189 L 262 194 L 264 195 L 267 192 L 267 189 L 261 189 Z M 308 194 L 293 198 Q 282 202 276 210 Q 274 216 277 218 Q 279 223 276 225 L 277 231 Q 280 226 281 218 L 282 218 L 282 225 L 276 236 L 274 239 Q 268 247 258 250 L 258 251 L 265 250 L 272 245 L 281 235 L 285 225 L 285 221 L 287 219 L 308 231 L 309 231 L 282 212 L 280 210 Q 293 196 320 196 L 322 196 L 328 196 L 325 194 L 308 194 Z M 310 198 L 296 202 L 283 211 L 313 231 L 314 232 L 313 228 L 314 214 Q 318 204 325 199 L 310 198 Z M 265 201 L 266 207 L 268 206 L 270 202 L 265 201 Z M 266 218 L 263 222 L 264 224 L 268 223 Q 269 219 266 218 Z M 289 222 L 282 239 Q 277 247 267 251 L 265 254 L 281 251 L 291 246 L 302 247 L 304 244 L 314 238 L 306 231 L 289 222 Z M 261 227 L 260 231 L 261 232 L 263 231 Q 265 226 261 227 Z M 359 232 L 342 241 L 337 247 Q 340 246 342 249 Q 345 250 344 248 Q 345 244 350 245 L 356 254 Q 358 255 357 252 L 357 250 L 356 248 L 357 247 L 357 239 L 359 234 L 359 232 Z M 224 235 L 221 238 L 223 240 L 225 239 L 226 237 L 224 235 Z M 218 238 L 216 239 L 213 243 L 220 242 Q 222 237 218 238 Z M 239 243 L 229 247 L 229 249 L 225 248 L 220 254 Q 216 255 219 257 L 217 257 L 215 265 L 218 266 L 218 267 L 215 266 L 213 268 L 213 277 L 217 278 L 213 278 L 215 288 L 219 290 L 217 290 L 219 296 Q 222 302 232 302 L 226 303 L 242 312 L 247 311 L 246 313 L 254 315 L 264 315 L 258 309 L 258 308 L 257 301 L 255 297 L 256 294 L 248 288 Q 249 284 246 283 L 242 285 L 238 291 L 234 294 L 225 292 L 229 291 L 228 286 Q 226 284 221 285 Q 218 284 219 279 Q 223 273 233 272 L 236 269 L 236 258 L 233 259 L 225 259 L 236 257 L 237 249 L 240 245 Q 241 242 239 243 Z M 348 248 L 341 265 Q 334 276 318 279 L 308 279 Q 306 277 302 278 L 299 276 L 296 277 L 302 290 Q 303 298 301 302 L 317 301 Q 329 298 338 291 L 345 284 L 349 275 L 351 266 Q 352 254 348 248 Z M 271 256 L 271 257 L 273 257 L 271 256 Z M 192 260 L 190 262 L 191 265 L 189 268 Q 186 267 187 270 L 198 279 L 198 284 L 201 284 L 202 282 Q 203 279 208 280 L 210 280 Q 209 271 212 265 L 205 268 L 201 268 L 192 260 Z M 281 261 L 282 263 Q 285 264 286 262 L 281 261 Z M 333 265 Q 332 269 335 268 Q 336 264 333 265 Z M 292 268 L 294 271 Q 297 272 298 270 Q 297 267 292 268 Z M 325 269 L 325 274 L 327 273 Q 328 268 325 269 Z M 316 272 L 313 275 L 313 276 L 317 276 L 317 272 L 316 272 Z M 275 278 L 267 282 L 261 288 L 258 297 Q 258 305 262 310 Q 267 316 277 318 Q 282 316 281 320 L 272 320 L 271 319 Q 263 318 260 321 Q 265 320 267 324 L 271 325 L 268 325 L 264 329 L 266 330 L 270 330 L 276 327 L 288 324 L 291 322 L 289 315 L 290 312 L 298 303 L 300 295 L 298 287 L 293 281 L 286 278 L 275 278 Z M 339 292 L 322 302 Q 316 301 314 304 L 301 304 L 293 315 L 301 315 L 316 311 Q 330 305 339 294 L 339 292 Z M 219 298 L 218 302 L 221 307 L 233 315 L 220 315 Q 219 318 215 317 Q 211 318 212 322 Q 218 323 220 318 L 223 319 L 221 319 Q 217 320 218 324 L 224 324 L 228 322 L 243 319 Q 247 320 245 315 Q 232 312 224 304 L 219 298 Z M 212 316 L 210 317 L 208 320 Q 212 321 212 318 L 212 316 Z M 255 321 L 251 325 Q 252 327 256 326 L 258 323 L 255 321 Z M 262 322 L 258 326 Q 257 329 263 327 L 265 323 L 262 322 Z " /><path fill="rgb(82,6,17)" stroke="rgb(82,6,17)" stroke-width="1" opacity="0.9725490196078431" d="M 234.5 189 Q 243.3 187.3 245 192.5 Q 248.3 196.2 247 204.5 L 242 213.5 L 242.5 215 L 236.5 219 L 231.5 220 L 228 219 L 228 217 Q 225.3 218.1 226 215.5 Q 222.6 212.9 224 205.5 L 227 196.5 L 226 195.5 L 230.5 191 L 234.5 189 Z M 236 193 L 229 197 L 225 210 L 228 216 L 231 204 L 234 206 L 236 203 L 234 200 Q 235 197 239 198 L 241 201 L 243 209 L 245 205 L 244 197 Q 243 192 236 193 Z " /><path fill="rgb(82,6,17)" stroke="rgb(82,6,17)" stroke-width="1" opacity="0.9725490196078431" d="M 244.5 214 L 248 214.5 L 244.5 215 L 244.5 214 Z " /><path fill="rgb(82,6,17)" stroke="rgb(82,6,17)" stroke-width="1" opacity="0.9725490196078431" d="M 179 216 Q 182.7 214.7 181 220.5 L 179 219.5 L 179 216 Z " /><path fill="rgb(82,6,17)" stroke="rgb(82,6,17)" stroke-width="1" opacity="0.9725490196078431" d="M 189.5 218 Q 193.9 216.5 193 219.5 L 187.5 223 L 187 220.5 L 189.5 218 Z " /><path fill="rgb(82,6,17)" stroke="rgb(82,6,17)" stroke-width="1" opacity="0.9725490196078431" d="M 220.5 257 L 224 257.5 L 220.5 258 L 220.5 257 Z " /><path fill="rgb(82,6,17)" stroke="rgb(82,6,17)" stroke-width="1" opacity="0.9725490196078431" d="M 220.5 267 L 234 267.5 L 220.5 268 L 220.5 267 Z " /><path fill="rgb(82,6,17)" stroke="rgb(82,6,17)" stroke-width="1" opacity="0.9725490196078431" d="M 245.5 288 L 247 288.5 L 243.5 290 L 243.5 289 L 245.5 288 Z " /><path fill="rgb(82,6,17)" stroke="rgb(82,6,17)" stroke-width="1" opacity="0.9725490196078431" d="M 220.5 290 L 223 290.5 L 220.5 291 L 220.5 290 Z " /><path fill="rgb(82,6,17)" stroke="rgb(82,6,17)" stroke-width="1" opacity="0.9725490196078431" d="M 243.5 300 L 246 300.5 L 243.5 301 L 243.5 300 Z " /><path fill="rgb(82,6,17)" stroke="rgb(82,6,17)" stroke-width="1" opacity="0.9725490196078431" d="M 235.5 301 L 242 301.5 L 235.5 302 L 235.5 301 Z " /><path fill="rgb(82,6,17)" stroke="rgb(82,6,17)" stroke-width="1" opacity="0.9725490196078431" d="M 250.5 310 L 254 310.5 L 250.5 311 L 250.5 310 Z " /></svg>